<?xml version="1.0" encoding="UTF-8"?>
<svg version="1.1" xmlns="http://www.w3.org/2000/svg" width="512" height="512">
<path d="M0 0 C8.3104123 7.26363225 15.08374346 14.58982528 20.54296875 24.22265625 C19.51558594 24.97289062 18.48820312 25.723125 17.4296875 26.49609375 C-3.54185525 41.92970763 -21.72457948 59.63733788 -29.45703125 85.22265625 C-29.74900391 86.18655273 -29.74900391 86.18655273 -30.046875 87.16992188 C-38.27913146 115.6599859 -34.68846821 148.76396908 -21.14453125 175.09765625 C-9.1867769 195.92560475 7.83671783 209.79673502 28.54296875 221.22265625 C30.21456446 222.21439491 31.88318464 223.21127378 33.54296875 224.22265625 C32.97341618 230.01054179 31.37030907 234.85726631 29.16796875 240.22265625 C28.81637695 241.08568359 28.46478516 241.94871094 28.10253906 242.83789062 C14.2770101 276.2246909 -4.64648342 308.54029363 -29.45703125 335.046875 C-31.57618871 337.29781572 -31.57618871 337.29781572 -33.7890625 340.17578125 C-36.5184594 343.47219707 -39.64099553 345.85763438 -43.14453125 348.28515625 C-43.76320068 348.71707275 -44.38187012 349.14898926 -45.01928711 349.59399414 C-61.26761574 360.74852547 -77.98066996 363.31121132 -97.36181641 359.91894531 C-107.43930919 357.85738588 -117.01665941 353.89956583 -126.61523438 350.28564453 C-158.92855503 338.19868593 -183.98164517 342.03197836 -215.6953125 353.78515625 C-231.71523731 359.66538918 -251.21827669 365.74743211 -268.12109375 359.3125 C-268.89195312 358.95285156 -269.6628125 358.59320313 -270.45703125 358.22265625 C-271.45476562 357.77019531 -272.4525 357.31773437 -273.48046875 356.8515625 C-289.78185031 348.77831296 -302.3366763 335.34951846 -313.45703125 321.22265625 C-313.9380127 320.61808594 -314.41899414 320.01351563 -314.91455078 319.390625 C-358.17546054 264.86029606 -384.99295225 196.15510406 -384.83203125 126.16015625 C-384.83148743 125.26390533 -384.8309436 124.36765442 -384.8303833 123.44424438 C-384.79038205 109.05835471 -383.96477041 95.23492631 -380.45703125 81.22265625 C-380.24272461 80.35495605 -380.02841797 79.48725586 -379.80761719 78.59326172 C-370.60985105 42.61218967 -349.76211593 9.49222136 -317.45703125 -9.77734375 C-290.39035238 -25.23940212 -260.82714051 -31.02613135 -230.39111328 -23.04833984 C-216.75848842 -19.27407183 -203.61961203 -14.08267437 -190.46704102 -8.91894531 C-185.92398966 -7.19590953 -181.55057692 -5.57996306 -176.70703125 -5.02734375 C-175.9490625 -4.929375 -175.19109375 -4.83140625 -174.41015625 -4.73046875 C-165.43535805 -4.87292586 -157.25931213 -8.12942381 -148.96603394 -11.28735352 C-145.6498747 -12.54803786 -142.32308742 -13.77996734 -138.99609375 -15.01171875 C-138.01572395 -15.37511353 -138.01572395 -15.37511353 -137.01554871 -15.74584961 C-90.52040628 -32.90321099 -39.93180316 -32.94849895 0 0 Z " fill="#000000" transform="translate(431.45703125,150.77734375)"/>
<path d="M0 0 C0.57956092 19.16844092 -1.27542138 36.33026366 -9 54 C-9.45246094 55.04542969 -9.90492188 56.09085938 -10.37109375 57.16796875 C-16.58060598 70.4841182 -25.87461001 81.50808005 -36 92 C-36.69996094 92.75152344 -37.39992188 93.50304687 -38.12109375 94.27734375 C-52.59888061 109.45425915 -72.83315562 118.27259134 -93.6875 119.15625 C-96.80540542 119.18360005 -99.88890458 119.21034136 -103 119 C-105.33178701 116.66821299 -104.24129598 110.99667158 -104.25 107.875 C-104.21631398 77.9569978 -91.40084822 52.49228852 -70.8125 31.3125 C-53.13588269 13.76666559 -25.23273552 -0.948203 0 0 Z " fill="#000000" transform="translate(359,0)"/>
</svg>
