<svg width="14" height="14" viewBox="0 0 14 14" fill="none" xmlns="http://www.w3.org/2000/svg">
<path d="M6.0752 0.243896C6.4005 -0.0814065 6.92761 -0.0813862 7.25293 0.243896C7.57818 0.569215 7.57822 1.09634 7.25293 1.42163L2.84375 5.83081H12.4951C12.9552 5.83081 13.3281 6.20376 13.3281 6.66382C13.328 7.1238 12.9551 7.49683 12.4951 7.49683H2.84375L7.25293 11.906C7.57817 12.2313 7.57819 12.7584 7.25293 13.0837C6.92763 13.4089 6.40047 13.4089 6.0752 13.0837L0.244141 7.25269C0.0934003 7.10198 5.0368e-05 6.89381 0 6.66382C0 6.43385 0.0934692 6.22569 0.244141 6.07495L6.0752 0.243896Z" fill="#A8A8A8"/>
</svg>
