<?xml version="1.0" encoding="UTF-8"?>
<svg version="1.1" xmlns="http://www.w3.org/2000/svg" width="41" height="62">
<path d="M0 0 C2.4375 0.8125 2.4375 0.8125 5 2 C5.33 2.99 5.66 3.98 6 5 C7.7634375 4.938125 7.7634375 4.938125 9.5625 4.875 C13.74766947 4.875 17.07123237 5.55677924 21 7 C21.33 7.66 21.66 8.32 22 9 C21.34 9 20.68 9 20 9 C20.20625 9.515625 20.4125 10.03125 20.625 10.5625 C21.15825804 14.02867725 20.0410996 16.69297773 19 20 C19 20.66 19 21.32 19 22 C17.0625 21.6875 17.0625 21.6875 15 21 C14.67 20.01 14.34 19.02 14 18 C10.31245243 18.49831724 8.39509338 19.10067643 6 22 C2.76724138 15.75 2.76724138 15.75 3.5625 13.1875 C4.20115222 9.99423888 3.23680301 7.96832723 2 5 C0.48446847 2.69833325 0.48446847 2.69833325 -1 1 C-0.67 0.67 -0.34 0.34 0 0 Z M7 15 C7 15.33 7 15.66 7 16 C10.63 16 14.26 16 18 16 C18.33 15.34 18.66 14.68 19 14 C14.83861737 13.91840426 11.0527516 14.01751476 7 15 Z " fill="#797979" transform="translate(9,19)"/>
<path d="M0 0 C1.95766281 -0.08082094 3.91626728 -0.13910778 5.875 -0.1875 C7.51082031 -0.23970703 7.51082031 -0.23970703 9.1796875 -0.29296875 C10.11039063 -0.19628906 11.04109375 -0.09960938 12 0 C12.66 0.99 13.32 1.98 14 3 C13.34 3 12.68 3 12 3 C12.33 4.32 12.66 5.64 13 7 C10.23547967 8.38226016 7.9538637 8.09525387 4.875 8.0625 C3.77929688 8.05347656 2.68359375 8.04445313 1.5546875 8.03515625 C0.29011719 8.01775391 0.29011719 8.01775391 -1 8 C-1 7.34 -1 6.68 -1 6 C1.64 6 4.28 6 7 6 C7 5.34 7 4.68 7 4 C6.34 3.67 5.68 3.34 5 3 C5.66 3 6.32 3 7 3 C7 2.34 7 1.68 7 1 C5.02 1 3.04 1 1 1 C0.67 1.66 0.34 2.32 0 3 C0 2.01 0 1.02 0 0 Z " fill="#959696" transform="translate(17,25)"/>
<path d="M0 0 C0.98120464 3.05263664 0.98120464 4.94736336 0 8 C-1.9375 7.6875 -1.9375 7.6875 -4 7 C-4.33 6.01 -4.66 5.02 -5 4 C-8.68754757 4.49831724 -10.60490662 5.10067643 -13 8 C-13.66 6.68 -14.32 5.36 -15 4 C-14 3 -14 3 -11.05859375 2.90234375 C-9.26615234 2.91974609 -9.26615234 2.91974609 -7.4375 2.9375 C-5.64119141 2.95103516 -5.64119141 2.95103516 -3.80859375 2.96484375 C-2.88175781 2.97644531 -1.95492188 2.98804688 -1 3 C-0.67 2.01 -0.34 1.02 0 0 Z " fill="#595959" transform="translate(28,33)"/>
<path d="M0 0 C0.33 0.66 0.66 1.32 1 2 C3.64 2 6.28 2 9 2 C9 2.33 9 2.66 9 3 C7.02 3.33 5.04 3.66 3 4 C3.99 4 4.98 4 6 4 C7.33981486 4.3062434 8.67511887 4.63451555 10 5 C9.34 5 8.68 5 8 5 C8 5.99 8 6.98 8 8 C8.66 8.33 9.32 8.66 10 9 C6.65284689 10.1157177 5.28928478 10.1807689 2 9 C0.13992075 5.72271751 0 3.8340246 0 0 Z " fill="#575757" transform="translate(14,22)"/>
<path d="M0 0 C2 0.3125 2 0.3125 4 1 C4.33 1.66 4.66 2.32 5 3 C4.34 3 3.68 3 3 3 C3.33 4.32 3.66 5.64 4 7 C2.35 6.67 0.7 6.34 -1 6 C-0.34 4.68 0.32 3.36 1 2 C0.34 1.67 -0.32 1.34 -1 1 C-0.67 0.67 -0.34 0.34 0 0 Z " fill="#515252" transform="translate(26,25)"/>
<path d="M0 0 C2.475 0.99 2.475 0.99 5 2 C4.34 3.32 3.68 4.64 3 6 C1.68 4.68 0.36 3.36 -1 2 C-0.67 1.34 -0.34 0.68 0 0 Z " fill="#535454" transform="translate(9,19)"/>
<path d="" fill="#000000" transform="translate(0,0)"/>
<path d="" fill="#000000" transform="translate(0,0)"/>
<path d="" fill="#000000" transform="translate(0,0)"/>
<path d="" fill="#000000" transform="translate(0,0)"/>
<path d="" fill="#000000" transform="translate(0,0)"/>
<path d="" fill="#000000" transform="translate(0,0)"/>
<path d="" fill="#000000" transform="translate(0,0)"/>
<path d="" fill="#000000" transform="translate(0,0)"/>
<path d="" fill="#000000" transform="translate(0,0)"/>
</svg>
