<?xml version="1.0" encoding="UTF-8"?>
<svg version="1.1" xmlns="http://www.w3.org/2000/svg" width="512" height="513">
<path d="M0 0 C1.56048725 -0.01059839 1.56048725 -0.01059839 3.1524995 -0.02141088 C4.29917085 -0.0189958 5.4458422 -0.01658071 6.62726116 -0.01409245 C7.84248964 -0.01932912 9.05771813 -0.0245658 10.30977172 -0.02996117 C13.68914534 -0.04239707 17.06831118 -0.04580393 20.44769347 -0.04536426 C24.08993575 -0.04700998 27.73213991 -0.06007191 31.37436199 -0.07155704 C39.34127471 -0.09442529 47.30816082 -0.10232961 55.2751019 -0.10738349 C60.24836484 -0.11063839 65.22162002 -0.11715961 70.19487858 -0.12438488 C83.96067875 -0.14395318 97.7264717 -0.16035604 111.49228668 -0.16326141 C112.81413681 -0.16354277 112.81413681 -0.16354277 114.16269098 -0.16382981 C115.94921855 -0.16419606 117.73574612 -0.16455976 119.5222737 -0.16492092 C120.40912583 -0.16510373 121.29597796 -0.16528654 122.2097044 -0.16547489 C123.09763723 -0.16565544 123.98557007 -0.16583599 124.90040996 -0.16602201 C139.29072089 -0.16956426 153.68088224 -0.19658874 168.07114128 -0.23397278 C182.84053534 -0.27203515 197.60985513 -0.29141874 212.37929934 -0.29172093 C220.67379779 -0.29230596 228.9681178 -0.30082771 237.26257038 -0.32971859 C244.32504079 -0.35420487 251.3872677 -0.36153414 258.44976906 -0.34647106 C262.05366063 -0.3392907 265.65707113 -0.34020707 269.26090908 -0.36288166 C273.16717665 -0.38722374 277.07275423 -0.37286718 280.9790678 -0.35466862 C282.11904699 -0.36786858 283.25902617 -0.38106855 284.43355018 -0.39466852 C292.9832451 -0.30340331 292.9832451 -0.30340331 296.66422844 2.64296532 C304.58682465 11.54401261 307.99363995 33.58230842 307.99363995 45.26006222 C308.86053448 45.23911495 309.72742901 45.21816769 310.62059307 45.19658566 C313.87087785 45.1279666 317.12079052 45.07804771 320.37156963 45.04033566 C321.77208468 45.02035592 323.17251777 44.99316202 324.57274151 44.95830441 C339.22773516 44.60290513 339.22773516 44.60290513 345.99363995 49.26006222 C348.0522337 51.26006222 348.0522337 51.26006222 349.43113995 53.26006222 C349.90422588 53.92006222 350.37731182 54.58006222 350.8647337 55.26006222 C352.72891442 58.56269382 353.11883855 61.69005024 353.1706419 65.44267941 C353.18347713 66.25742733 353.19631237 67.07217525 353.20953655 67.91161251 C353.22061695 69.22104824 353.22061695 69.22104824 353.2319212 70.55693722 C353.23999294 71.46453793 353.24806469 72.37213863 353.25638103 73.30724239 C353.27019633 75.22704326 353.28092988 77.14686842 353.28880596 79.06670284 C353.30032021 81.02185462 353.32076321 82.9769751 353.3503294 84.93193722 C353.39316769 87.76548661 353.4091977 90.5981035 353.4194212 93.43193722 C353.43692928 94.29679745 353.45443737 95.16165768 353.47247601 96.05272579 C353.44839764 102.86213628 351.70932981 108.04835594 347.28270245 113.28349972 C346.45899151 113.95252316 346.45899151 113.95252316 345.61863995 114.63506222 C345.07465557 115.09654659 344.5306712 115.55803097 343.97020245 116.03349972 C339.17169793 119.01122781 334.67594623 119.49847663 329.11863995 119.38506222 C327.96621807 119.36701534 326.8137962 119.34896847 325.62645245 119.33037472 C324.75762432 119.30717159 323.8887962 119.28396847 322.99363995 119.26006222 C322.94538067 119.96098995 322.89712139 120.66191769 322.84739971 121.38408566 C322.23679436 129.49101535 321.16535575 137.47675652 319.93113995 145.51006222 C319.65173565 147.36051144 319.65173565 147.36051144 319.36668682 149.24834347 C318.91252439 152.25280262 318.45478837 155.25666884 317.99363995 158.26006222 C318.6072337 158.53334347 319.22082745 158.80662472 319.85301495 159.08818722 C323.33753313 160.99577017 324.7997039 163.60057304 325.99363995 167.26006222 C327.39438831 180.07071104 324.56010452 193.29522738 322.73655987 205.9312048 C322.38594082 208.41113173 322.03615567 210.89117668 321.68713665 213.37132931 C320.83939956 219.37869751 319.98263009 225.3847119 319.12135717 231.39014909 C318.42131112 236.27291128 317.72522517 241.15622326 317.03190327 246.03994465 C316.88333301 247.08645119 316.88333301 247.08645119 316.73176134 248.15409928 C316.53051609 249.57178574 316.32928132 250.98947369 316.12805692 252.40716311 C314.2458226 265.66501478 312.35187826 278.92117267 310.45371125 292.17675128 C308.82741308 303.53557413 307.21059514 314.89571285 305.60081768 326.25688839 C303.72749983 339.47797348 301.84876073 352.69826844 299.96109182 365.9173128 C299.75966406 367.32796067 299.55824141 368.73860928 299.35682392 370.14925861 C299.25773809 370.84318227 299.15865225 371.53710594 299.05656382 372.25205759 C298.36065533 377.12822537 297.66854438 382.00492339 296.97788334 386.88183689 C296.04776866 393.44859858 295.10860095 400.01402303 294.16341496 406.57863522 C293.81827055 408.98522153 293.47597752 411.39221878 293.1367712 413.79964924 C292.67267965 417.08998063 292.19819627 420.37865334 291.72110271 423.66712093 C291.5897671 424.6157656 291.45843149 425.56441027 291.323116 426.54180175 C290.07698815 434.989217 288.85343373 442.60073234 281.99363995 448.26006222 C278.99363995 450.26006222 278.99363995 450.26006222 275.99363995 450.26006222 C275.84668682 451.77406612 275.84668682 451.77406612 275.69676495 453.31865597 C274.75061456 462.65694024 273.57920746 471.96984907 272.24363995 481.26006222 C272.11118877 482.29703243 271.9787376 483.33400265 271.84227276 484.4023962 C270.56963886 492.86378351 267.62133826 499.48725597 261.64988995 505.69756222 C260.5825462 506.47099972 260.5825462 506.47099972 259.49363995 507.26006222 C258.4262962 508.06443722 258.4262962 508.06443722 257.33738995 508.88506222 C251.8536787 512.10217281 246.61993255 512.55460825 240.38045025 512.54094601 C239.09914162 512.54985937 239.09914162 512.54985937 237.79194796 512.55895281 C234.93644979 512.57626277 232.08111996 512.57933781 229.22557354 512.58232784 C227.17521592 512.59158883 225.12486173 512.60163878 223.07451153 512.61241817 C217.5081242 512.63862767 211.94178508 512.65154879 206.37534571 512.66043949 C202.89469635 512.6663078 199.41406008 512.67451876 195.93341732 512.68344784 C185.03471259 512.71078897 174.13603787 512.73012599 163.23730123 512.73785162 C150.67239933 512.74680814 138.10793311 512.78188547 125.54316366 512.83985281 C115.82063359 512.88314444 106.09822584 512.9032633 96.37560046 512.90593386 C90.57361406 512.908026 84.77203745 512.91975596 78.97015285 512.95557308 C73.50837659 512.98863511 68.04731591 512.99279777 62.58547497 512.97529507 C60.58769464 512.97375958 58.58987504 512.98237043 56.59219265 513.00221157 C44.45675626 513.11561394 34.71772278 512.82211621 25.01926517 504.58271694 C16.31991592 495.97158288 15.7450812 481.719419 14.24363995 470.26006222 C14.02205024 468.64923806 13.79940105 467.03855927 13.5756712 465.42803097 C11.99363995 453.89197328 11.99363995 453.89197328 11.99363995 450.26006222 C11.12738995 450.07443722 10.26113995 449.88881222 9.36863995 449.69756222 C4.72624606 447.7202463 2.48983162 445.63394427 -0.00636005 441.26006222 C-3.56685558 428.64396361 -4.71971724 415.12696165 -6.55982685 402.18144894 C-6.90475915 399.7766668 -7.25003438 397.37193382 -7.59562397 394.96724606 C-8.4308206 389.14808084 -9.26202347 383.32835416 -10.09097513 377.50829683 C-10.76527145 372.77414114 -11.44087158 368.04017333 -12.11736202 363.30633068 C-14.04040164 349.84833552 -15.95978815 336.3898264 -17.87462916 322.93066226 C-17.9774778 322.2077578 -18.08032643 321.48485334 -18.18629169 320.74004269 C-18.28926671 320.01624401 -18.39224172 319.29244534 -18.49833719 318.54671337 C-20.16896415 306.80572847 -21.84847495 295.06603363 -23.53195586 283.32688557 C-25.26557956 271.23732093 -26.99238535 259.14679906 -28.71221763 247.05526459 C-29.67589956 240.28097481 -30.64234889 233.50710735 -31.61619854 226.73427105 C-32.53158732 220.36763363 -33.4375116 213.99969332 -34.33718967 207.63081646 C-34.66782156 205.30082926 -35.00152097 202.97127486 -35.33859539 200.64221096 C-39.77860519 169.9301302 -39.77860519 169.9301302 -36.25636005 163.07256222 C-34.1091716 160.38857664 -33.02141504 159.59656768 -30.00636005 158.26006222 C-30.23355732 156.70110226 -30.23355732 156.70110226 -30.46534443 155.11064816 C-31.02728092 151.24956786 -31.58549352 147.38795678 -32.14259052 143.5261755 C-32.38408941 141.85578117 -32.62659397 140.18553191 -32.87012959 138.51543331 C-33.22027934 136.11297722 -33.56679303 133.71002032 -33.91261005 131.30693722 C-34.02197895 130.56200008 -34.13134785 129.81706295 -34.24403095 129.04955196 C-34.71811838 125.73237079 -35.00636005 122.620625 -35.00636005 119.26006222 C-35.85198505 119.29486691 -36.69761005 119.32967159 -37.56886005 119.36553097 C-52.23672655 119.7155596 -52.23672655 119.7155596 -57.97511005 114.45537472 C-64.01663415 107.89388339 -65.32307134 102.67242494 -65.3774538 93.93584347 C-65.38648228 93.03440105 -65.39551075 92.13295864 -65.40481281 91.20419979 C-65.41929341 89.29878197 -65.4281966 87.39331467 -65.43189716 85.48784542 C-65.44375077 82.59919518 -65.49292043 79.71271253 -65.54346943 76.82451534 C-65.70884212 58.17652078 -65.70884212 58.17652078 -60.00636005 51.26006222 C-54.75391311 46.36038616 -50.19983638 45.13266358 -43.1508913 45.16240597 C-42.15843655 45.16452839 -42.15843655 45.16452839 -41.1459322 45.16669369 C-39.03686178 45.17228226 -36.92789828 45.18483257 -34.81886005 45.19756222 C-33.38722096 45.2025787 -31.95558021 45.20714135 -30.52393818 45.21123409 C-27.01804417 45.22224792 -23.51221255 45.23950467 -20.00636005 45.26006222 C-19.87060566 44.49975704 -19.73485126 43.73945187 -19.5949831 42.95610714 C-18.96637159 39.4523229 -18.33016199 35.94995768 -17.69386005 32.44756222 C-17.48052021 31.25195675 -17.26718037 30.05635128 -17.04737568 28.82451534 C-13.09827068 7.19285063 -13.09827068 7.19285063 -8.00636005 2.26006222 C-4.73052603 0.07617287 -3.7951224 0.00821879 0 0 Z M2.99363995 15.26006222 C1.25542427 20.47470926 -0.01322774 25.46795079 -1.13136005 30.82256222 C-1.31311787 31.65980831 -1.49487568 32.49705441 -1.6821413 33.35967159 C-1.85358662 34.17371456 -2.02503193 34.98775753 -2.20167255 35.82646847 C-2.35652119 36.558092 -2.51136982 37.28971554 -2.67091084 38.04350948 C-3.03926067 40.47746008 -3.06197295 42.80202637 -3.00636005 45.26006222 C-2.14357441 45.27988155 -1.28078876 45.29970089 -0.3918581 45.32012081 C2.81200951 45.39825866 6.01549889 45.48495304 9.21898174 45.57744503 C10.60495901 45.61570572 11.99103459 45.65056378 13.37718487 45.68193722 C15.37065635 45.72764921 17.36380908 45.78665147 19.3569212 45.84599972 C20.55615215 45.87742062 21.75538311 45.90884151 22.9909544 45.94121456 C25.99363995 46.26006222 25.99363995 46.26006222 28.99363995 48.26006222 C29.86477439 52.18016721 30.3723591 55.4302868 28.99363995 59.26006222 C25.33718767 60.40358686 21.88488712 60.39784501 18.06956768 60.41777706 C17.38129894 60.42285778 16.6930302 60.4279385 15.98390484 60.43317318 C14.49378436 60.44384899 13.00364813 60.45248004 11.51350498 60.45929241 C9.15572956 60.47110748 6.79813515 60.49056433 4.44043255 60.51241207 C-2.26141589 60.57395904 -8.96324227 60.62815384 -15.6652956 60.66142941 C-19.76789302 60.68234543 -23.87015429 60.71761587 -27.97255993 60.762187 C-29.53583993 60.77636352 -31.09917934 60.78507317 -32.66252041 60.78824139 C-34.8459341 60.79313702 -37.02845031 60.8162555 -39.21168232 60.84355831 C-41.0755534 60.85568859 -41.0755534 60.85568859 -42.97707844 60.86806393 C-45.96692009 61.02159431 -45.96692009 61.02159431 -47.90577412 62.5612402 C-49.82085748 65.51728904 -49.45308658 68.9111939 -49.4399538 72.32256222 C-49.44519566 73.11025997 -49.45043751 73.89795773 -49.4558382 74.70952511 C-49.46225757 76.37381976 -49.46092247 78.03815979 -49.45240498 79.70244503 C-49.44388994 82.25111624 -49.47266204 84.79754976 -49.50440693 87.34599972 C-49.50601891 88.96318655 -49.50544147 90.58037735 -49.5024538 92.19756222 C-49.51368778 92.96012325 -49.52492176 93.72268429 -49.53649616 94.50835323 C-49.54071432 98.63236517 -49.54071432 98.63236517 -47.37517792 101.96132052 C-44.29019181 103.65271274 -42.11892376 103.63609441 -38.60356522 103.63758564 C-37.63814989 103.64412612 -37.63814989 103.64412612 -36.65323123 103.65079874 C-34.48768299 103.66178307 -32.32276773 103.65131877 -30.1572237 103.64101315 C-28.59260689 103.64446846 -27.02799252 103.64923217 -25.46338326 103.65519488 C-21.15695008 103.6677518 -16.85071562 103.66151327 -12.5442816 103.65223622 C-7.90279214 103.64546528 -3.26133753 103.65591719 1.38014507 103.66417599 C10.47528127 103.67753613 19.57034333 103.67462553 28.66548247 103.66593806 C36.05476583 103.6591713 43.44402837 103.65824042 50.83331394 103.66150951 C51.88376772 103.66196921 52.93422151 103.66242891 54.01650722 103.66290254 C56.1502669 103.66386169 58.28402657 103.66483432 60.41778623 103.66582032 C80.43930977 103.67438078 100.46079213 103.66452956 120.48230892 103.64841922 C137.67515277 103.63501349 154.86793586 103.63734496 172.06077862 103.6511755 C192.01071786 103.66721635 211.960621 103.67355881 231.91056579 103.66433871 C234.03630443 103.66338303 236.16204307 103.66243991 238.28778172 103.66150951 C239.33377742 103.66104669 240.37977312 103.66058386 241.45746567 103.66010701 C248.84147125 103.65751278 256.22545401 103.66189739 263.60945606 103.66894817 C272.60284641 103.6773467 281.59615817 103.67511776 290.58953948 103.65910594 C295.18126214 103.65120126 299.77285359 103.64816887 304.36457539 103.6580534 C308.56327455 103.66695544 312.76172018 103.66214219 316.96039616 103.64612074 C318.4838705 103.64275381 320.00736601 103.64450958 321.53082687 103.65174811 C323.59308962 103.66079936 325.65447049 103.65158833 327.71668625 103.63758564 C328.86469084 103.63709858 330.01269543 103.63661153 331.19548804 103.63610971 C333.98310134 103.47816384 333.98310134 103.47816384 335.86168808 101.96132052 C337.8213101 99.01612177 337.41931693 95.61808252 337.39207745 92.19756222 C337.39494762 91.40986446 337.3978178 90.62216671 337.40077496 89.81059933 C337.40281516 88.14628537 337.39728827 86.48194741 337.38475323 84.81767941 C337.36869804 82.26928275 337.38460239 79.72247201 337.4037962 77.17412472 C337.40181376 75.55693372 337.39797006 73.9397437 337.39207745 72.32256222 C337.40118649 71.17872066 337.40118649 71.17872066 337.41047955 70.0117712 C337.42448488 66.04358553 337.42448488 66.04358553 335.76310343 62.55890709 C333.47008952 60.87575884 332.12576046 60.88362971 329.29404068 60.88088799 C328.32215036 60.87266484 327.35026004 60.8644417 326.3489185 60.85596937 C324.74359356 60.86528709 324.74359356 60.86528709 323.10583782 60.87479305 C321.97086925 60.86955736 320.83590069 60.86432166 319.66653913 60.85892731 C315.84325596 60.84489929 312.02030708 60.85228429 308.19700909 60.85942745 C305.46416536 60.85536225 302.73134064 60.84675456 299.9985075 60.83827877 C294.10373693 60.82228469 288.20903512 60.81702966 282.31424427 60.81880665 C273.78697282 60.82118743 265.25981149 60.80521701 256.73256879 60.7843541 C242.89259859 60.75080764 229.05263822 60.72915927 215.21263409 60.71636105 C214.38398893 60.71559156 213.55534377 60.71482207 212.70158815 60.71402926 C209.34394996 60.71092691 205.98631176 60.70784409 202.62867353 60.70478922 C193.38745223 60.69626027 184.14623434 60.68535942 174.9050169 60.6733923 C174.07768191 60.67232428 173.25034692 60.67125626 172.39794118 60.67015588 C158.61166017 60.65207412 144.82540261 60.62608752 131.03914446 60.59526116 C122.53165654 60.57668871 114.02422126 60.56579027 105.51671278 60.56473923 C99.68909271 60.56363715 93.86150873 60.55570182 88.0339039 60.54235559 C84.66937673 60.5349245 81.30499546 60.5319468 77.94045162 60.53547382 C74.29636041 60.5388566 70.65249468 60.53013321 67.00842571 60.51834774 C65.40644686 60.52431938 65.40644686 60.52431938 63.7721048 60.53041166 C62.3103577 60.52198857 62.3103577 60.52198857 60.81908035 60.51339531 C59.97772744 60.51274321 59.13637452 60.5120911 58.26952606 60.51141924 C55.74321479 60.23240437 54.13789388 59.61069062 51.99363995 58.26006222 C50.46871997 55.21022226 50.75801447 52.61772532 50.99363995 49.26006222 C52.5018408 47.22724893 53.39113235 46.38033393 55.8922984 45.8810547 C56.61414675 45.8791561 57.3359951 45.8772575 58.07971764 45.87530136 C58.91473893 45.86584482 59.74976022 45.85638828 60.61008519 45.84664518 C61.52739236 45.85149275 62.44469953 45.85634033 63.38980389 45.8613348 C64.36425262 45.85468797 65.33870136 45.84804115 66.34267884 45.8411929 C69.62251484 45.82247391 72.90198889 45.82517419 76.18187237 45.82768917 C78.52711792 45.81867746 80.87235875 45.80835171 83.21759319 45.79680538 C89.59738968 45.76913998 95.97709703 45.75993792 102.35694575 45.75395131 C108.34487117 45.74553999 114.33273901 45.7234164 120.32062594 45.70133283 C132.18190928 45.65803606 144.04318737 45.62808584 155.90452862 45.60649776 C167.42766686 45.58549672 178.95076212 45.55822929 190.47386456 45.52251339 C191.53903972 45.51921515 191.53903972 45.51921515 192.62573358 45.51585028 C196.18813096 45.50478085 199.75052794 45.493588 203.31292474 45.48233378 C232.87312337 45.38910779 262.4333516 45.31835015 291.99363995 45.26006222 C290.01363995 35.36006222 288.03363995 25.46006222 285.99363995 15.26006222 C192.60363995 15.26006222 99.21363995 15.26006222 2.99363995 15.26006222 Z M-19.00636005 119.26006222 C-17.35636005 131.14006222 -15.70636005 143.02006222 -14.00636005 155.26006222 C90.27363995 155.26006222 194.55363995 155.26006222 301.99363995 155.26006222 C305.40110011 137.32841911 305.40110011 137.32841911 306.99363995 119.26006222 C199.41363995 119.26006222 91.83363995 119.26006222 -19.00636005 119.26006222 Z M-22.00636005 171.26006222 C-22.04349354 177.81238292 -22.04349354 177.81238292 -21.44972134 184.16884899 C-21.32555249 185.06012627 -21.20138365 185.95140355 -21.07345212 186.86968923 C-20.93474222 187.82417699 -20.79603232 188.77866475 -20.65311909 189.76207638 C-20.50752233 190.79514471 -20.36192558 191.82821304 -20.2119168 192.89258647 C-19.72439866 196.34170209 -19.22891467 199.78962454 -18.73341084 203.23760128 C-18.38152044 205.71495296 -18.03010208 208.19237172 -17.67912006 210.66985226 C-16.82458083 216.69194736 -15.96478163 222.7132695 -15.10231556 228.73423269 C-14.40155376 233.62695127 -13.70288067 238.51996383 -13.00568485 243.4131918 C-12.85668151 244.45892013 -12.85668151 244.45892013 -12.70466801 245.52577429 C-12.50286431 246.94210264 -12.30106378 248.35843144 -12.09926639 249.77476069 C-10.20855504 263.04286588 -8.31077344 276.30995252 -6.41070484 289.57672045 C-4.67222161 301.71668153 -2.94196618 313.85779824 -1.21567096 325.99949792 C0.55762855 338.47135375 2.33607538 350.94246512 4.12027657 363.41276622 C4.32196997 364.82257492 4.52365555 366.23238475 4.72533321 367.6421957 C4.82455976 368.33582874 4.9237863 369.02946178 5.02601971 369.744114 C5.72506879 374.63312715 6.42076355 379.52261086 7.11512661 384.41229153 C8.04919378 390.98941155 8.99058764 397.56545392 9.93697262 404.14081478 C10.28366731 406.55762752 10.62796129 408.97478601 10.96971416 411.39230251 C11.43550299 414.68449368 11.90984414 417.97534005 12.38643169 421.26598263 C12.52068015 422.22939327 12.65492861 423.19280392 12.7932452 424.18540883 C12.92262953 425.06625512 13.05201387 425.94710141 13.18531895 426.85464001 C13.34821897 427.99413109 13.34821897 427.99413109 13.5144099 429.1566422 C14.03107009 431.4243493 14.87530323 433.22868507 15.99363995 435.26006222 C16.76816635 435.26245057 17.54269276 435.26483892 18.34068966 435.26729965 C37.17730262 435.32640803 56.01378409 435.40193132 74.85025692 435.49577713 C83.95940018 435.54076328 93.0685041 435.5801714 102.17772198 435.60649776 C110.11632546 435.62945505 118.05480473 435.66282755 125.99330974 435.70876378 C130.19760378 435.73272673 134.40177456 435.75143532 138.60613537 435.75767612 C142.56243138 435.76371316 146.51841191 435.78366256 150.47459126 435.81433773 C151.92741552 435.8231402 153.38028098 435.82683597 154.83313084 435.82507038 C156.81548271 435.82342177 158.79782107 435.84185743 160.78007793 435.8613348 C161.88991669 435.86594377 162.99975544 435.87055273 164.14322567 435.87530136 C167.32420245 436.30468293 168.71015903 437.04120064 170.99363995 439.26006222 C171.4897337 441.19756222 171.4897337 441.19756222 171.43113995 443.26006222 C171.42920635 444.28099972 171.42920635 444.28099972 171.4272337 445.32256222 C170.8543226 447.88259738 170.07072054 448.66255694 167.99363995 450.26006222 C165.45368195 450.64482307 165.45368195 450.64482307 162.35589886 450.65878963 C161.18220745 450.67132778 160.00851604 450.68386593 158.79925823 450.69678402 C157.5102914 450.69534893 156.22132458 450.69391384 154.89329815 450.69243526 C153.52340591 450.70145054 152.15352177 450.71177719 150.78364849 450.72331905 C147.06284924 450.75094306 143.34220282 450.76018082 139.62131429 450.76617312 C135.73349474 450.77554282 131.84578999 450.80174501 127.95804119 450.82617855 C120.59518421 450.86988604 113.23234945 450.89840684 105.86940211 450.92150193 C97.48732216 450.94853089 89.10535745 450.99244377 80.7233597 451.03779066 C63.48017906 451.13069776 46.23697355 451.20235065 28.99363995 451.26006222 C29.14611909 453.47972339 29.30035095 455.69926419 29.45530987 457.91875362 C29.54100735 459.15477322 29.62670483 460.39079281 29.7149992 461.66426754 C30.07817522 466.35097051 30.62844534 470.98480419 31.30613995 475.63506222 C31.41119854 476.45877316 31.51625713 477.28248409 31.62449932 478.13115597 C32.52781433 484.36057425 33.83921141 490.83993536 39.05604172 494.84236908 C42.83561897 496.66640365 46.1924936 496.67958513 50.29916668 496.64774227 C51.13225009 496.65312781 51.9653335 496.65851335 52.82366186 496.66406208 C55.61346329 496.67836254 58.40279163 496.67123281 61.19261456 496.66411495 C63.1934475 496.66981742 65.19427719 496.6767812 67.19510174 496.68491268 C72.62896634 496.70287268 78.06266971 496.70167035 83.49655509 496.6959703 C88.03197634 496.69288258 92.56736644 496.69896624 97.10278326 496.70500904 C107.80169864 496.71906197 118.50053418 496.71748655 129.19945049 496.70610714 C140.23933067 496.6946246 151.27896796 496.70870222 162.31881613 496.73550361 C171.79580744 496.75765 181.27272244 496.76430039 190.7497378 496.7584272 C196.41059024 496.75505396 202.07128696 496.75749718 207.73211765 496.77467823 C213.05505872 496.7901283 218.37763956 496.78621318 223.70056629 496.76737309 C225.65408159 496.76368187 227.60762346 496.76681113 229.56111431 496.77725887 C232.22820284 496.79043403 234.89409272 496.77895239 237.56112957 496.76126766 C238.33399538 496.77087267 239.10686118 496.78047768 239.90314716 496.79037374 C245.07237853 496.7198608 248.02419211 495.54590494 251.99363995 492.26006222 C254.91943124 487.78569852 255.71368257 483.23436064 256.3803587 478.01787472 C256.48709408 477.24950283 256.59382946 476.48113094 256.70379925 475.68947506 C257.03953991 473.2559088 257.36055167 470.82066604 257.68113995 468.38506222 C257.90738019 466.72607503 258.13458399 465.06721894 258.36278057 463.40849972 C258.91755706 459.36045177 259.45914091 455.31083534 259.99363995 451.26006222 C259.19850491 451.24975475 258.40336987 451.23944729 257.58413982 451.22882748 C250.09448251 451.13089133 242.60490841 451.0283824 235.11538506 450.92072296 C231.26485512 450.86553455 227.41431754 450.81212109 223.56370831 450.76274776 C219.84837838 450.71504398 216.13314031 450.66269901 212.41792011 450.60712147 C210.9997597 450.58672517 209.58157413 450.56800759 208.16336918 450.5509882 C206.17859274 450.52688416 204.1938984 450.49628362 202.20921612 450.46538448 C200.51377918 450.44206806 200.51377918 450.44206806 198.784091 450.4182806 C195.99363995 450.26006222 195.99363995 450.26006222 192.99363995 449.26006222 C192.23190603 444.94357002 191.83300391 441.51572769 192.99363995 437.26006222 C196.76379453 436.0639721 200.50928389 436.08710181 204.42430401 436.05473995 C205.16615948 436.04484035 205.90801495 436.03494076 206.67235088 436.02474117 C209.11795673 435.99322075 211.56358199 435.96840627 214.00926495 435.94365597 C215.70749185 435.92307827 217.40571372 435.90208158 219.10393047 435.88068295 C223.56891585 435.82554655 228.0339468 435.77610015 232.49901104 435.72783566 C237.05715767 435.677559 241.61523828 435.62190513 246.17332745 435.56670284 C255.11337634 435.45922442 264.05348318 435.35813452 272.99363995 435.26006222 C275.50191049 421.72721868 277.51930363 408.14270947 279.45530987 394.51763058 C279.79049842 392.17342114 280.12591863 389.82924482 280.46155071 387.48509884 C281.3649189 381.17004414 282.26466438 374.85447863 283.1634109 368.53876472 C283.72578399 364.58813715 284.28894001 360.63762173 284.85245991 356.68715763 C286.71879209 343.60281871 288.58279417 330.51815101 290.44371446 317.43304127 C290.5435761 316.73086297 290.64343774 316.02868466 290.74632549 315.30522823 C290.84630989 314.60218331 290.94629429 313.89913839 291.04930852 313.17478908 C292.67409885 301.7510323 294.30450728 290.32808526 295.93743034 278.90548842 C297.61868589 267.14434241 299.29577768 255.38260919 300.96853048 243.62025076 C301.90595079 237.02916258 302.84517715 230.43834072 303.78867435 223.84811878 C304.67434392 217.66073446 305.55466292 211.47261223 306.43087101 205.28388119 C306.75304587 203.01485588 307.07712344 200.7460998 307.40325069 198.4776392 C307.84835454 195.3794899 308.28655559 192.2804389 308.72305584 189.18106747 C308.85330172 188.28602959 308.98354761 187.39099172 309.11774033 186.46883148 C309.23432569 185.63085543 309.35091104 184.79287938 309.47102928 183.92951012 C309.57268699 183.21573784 309.67434471 182.50196557 309.77908295 181.76656383 C310.07783905 178.2764299 309.99363995 174.7629596 309.99363995 171.26006222 C200.43363995 171.26006222 90.87363995 171.26006222 -22.00636005 171.26006222 Z " fill="#000000" transform="translate(112.00636005401611,-0.26006221771240234)"/>
<path d="M0 0 C0.97839844 0.4021875 1.95679688 0.804375 2.96484375 1.21875 C13.95024833 6.20581891 22.02119922 13.55124406 28 24 C28.37769531 24.61101562 28.75539063 25.22203125 29.14453125 25.8515625 C36.97926167 39.64303552 36.63229426 57.66028551 32.96875 72.63671875 C28.27999742 88.91500897 20.90233878 102.05882814 9 114 C7.71802734 115.28970703 7.71802734 115.28970703 6.41015625 116.60546875 C5.61480469 117.39566406 4.81945312 118.18585938 4 119 C3.43539062 119.56203125 2.87078125 120.1240625 2.2890625 120.703125 C-14.16613619 135.99950688 -35.86127302 143.4433628 -58.15136719 142.95263672 C-73.73035133 142.08630419 -87.01788227 135.49253584 -97.75 124.3125 C-108.66931097 111.52185835 -112.31099934 95.67849354 -111.21582031 79.09716797 C-109.01027899 57.66549384 -98.82133259 39.26211571 -84 24 C-83.45085937 23.38898438 -82.90171875 22.77796875 -82.3359375 22.1484375 C-63.31662841 1.63006957 -26.80025485 -11.35676931 0 0 Z M-77 40 C-88.28986038 54.80606268 -97.16123113 71.80930913 -95 91 C-93.7879232 98.05446139 -91.94465444 104.01500706 -88 110 C-65.79055693 99.69226805 -45.60908777 79.02675684 -37 56.375 C-34.50457068 49.82480759 -31.4244093 44.43909821 -27 39 C-26.35546875 38.18144531 -25.7109375 37.36289062 -25.046875 36.51953125 C-19.74588939 30.18779844 -13.7204115 25.63165963 -6.94140625 21.03125 C-4.03337189 19.15339942 -4.03337189 19.15339942 -2 17 C-3.0725 16.525625 -4.145 16.05125 -5.25 15.5625 C-5.85328125 15.29566406 -6.4565625 15.02882812 -7.078125 14.75390625 C-32.04555035 4.95977395 -61.08381057 21.57561729 -77 40 Z M-11.79296875 44.71875 C-17.96076158 51.09395533 -21.40042124 57.63904181 -24.4375 65.875 C-33.55990569 90.5900891 -54.10225334 106.30189541 -75 121 C-68.46045444 125.35969704 -61.56052322 126.53963815 -53.8125 126.4375 C-52.98733887 126.42920166 -52.16217773 126.42090332 -51.31201172 126.41235352 C-30.64519663 125.8495143 -13.8309635 114.56259897 0.1640625 100.08203125 C12.32437522 86.29171917 19.99062122 68.57952839 19.32421875 50.03515625 C18.48812341 42.20809503 16.2528646 35.59927265 12 29 C4.10844125 29 -6.25322677 39.4922406 -11.79296875 44.71875 Z " fill="#000000" transform="translate(294,228)"/>
</svg>
