<?xml version="1.0" encoding="UTF-8"?>
<svg version="1.1" xmlns="http://www.w3.org/2000/svg" width="35" height="36">
<path d="M0 0 C3.20870233 0.16757757 3.20870233 0.16757757 6 0 C6 -0.66 6 -1.32 6 -2 C7.65 -2 9.3 -2 11 -2 C11.33 -0.02 11.66 1.96 12 4 C11.01 4.33 10.02 4.66 9 5 C9.66 6.65 10.32 8.3 11 10 C10.34 10 9.68 10 9 10 C9.99 11.485 9.99 11.485 11 13 C10.8125 16.5625 10.8125 16.5625 10 20 C9.01 20.66 8.02 21.32 7 22 C6.34 22.66 5.68 23.32 5 24 C0.51494214 26.24252893 -4.07035139 26.09665978 -9 26 C-9.33 25.34 -9.66 24.68 -10 24 C-10.99 24 -11.98 24 -13 24 C-13.33 23.01 -13.66 22.02 -14 21 C-14.37318359 19.96746094 -14.37318359 19.96746094 -14.75390625 18.9140625 C-17.69672841 10.58317466 -17.69672841 10.58317466 -17 7 C-15 4.1875 -15 4.1875 -13 2 C-12.01 2.33 -11.02 2.66 -10 3 C-10.33 2.01 -10.66 1.02 -11 0 C-6.36288764 -1.9411168 -4.51870847 -2.03341881 0 0 Z " fill="#757575" transform="translate(21,3)"/>
<path d="M0 0 C1.98 0.495 1.98 0.495 4 1 C4 2.32 4 3.64 4 5 C3.01 5.33 2.02 5.66 1 6 C0.34 5.67 -0.32 5.34 -1 5 C-0.67 3.35 -0.34 1.7 0 0 Z " fill="#CCCCCC" transform="translate(20,15)"/>
<path d="M0 0 C1.65 0.33 3.3 0.66 5 1 C4.67 2.32 4.34 3.64 4 5 C2.68 5 1.36 5 0 5 C-0.33 4.01 -0.66 3.02 -1 2 C-0.67 1.34 -0.34 0.68 0 0 Z " fill="#CDCDCD" transform="translate(12,9)"/>
<path d="" fill="#000000" transform="translate(0,0)"/>
<path d="M0 0 C2 1 2 1 2 1 Z " fill="#000000" transform="translate(19,2)"/>
<path d="" fill="#000000" transform="translate(0,0)"/>
<path d="" fill="#000000" transform="translate(0,0)"/>
<path d="" fill="#000000" transform="translate(0,0)"/>
<path d="" fill="#000000" transform="translate(0,0)"/>
<path d="" fill="#000000" transform="translate(0,0)"/>
<path d="" fill="#000000" transform="translate(0,0)"/>
<path d="" fill="#000000" transform="translate(0,0)"/>
<path d="" fill="#000000" transform="translate(0,0)"/>
<path d="" fill="#000000" transform="translate(0,0)"/>
<path d="" fill="#000000" transform="translate(0,0)"/>
</svg>
