<?xml version="1.0" encoding="UTF-8"?>
<svg version="1.1" xmlns="http://www.w3.org/2000/svg" width="41" height="41">
<path d="M0 0 C4.08949683 1.8588622 6.98453932 3.67259511 10 7 C10.5775 7.5775 11.155 8.155 11.75 8.75 C12.1625 9.1625 12.575 9.575 13 10 C12.01 10.66 11.02 11.32 10 12 C9.63637182 14.20725073 9.63637182 14.20725073 9.8125 16.625 C9.83957031 17.44226563 9.86664062 18.25953125 9.89453125 19.1015625 C9.94673828 20.04128906 9.94673828 20.04128906 10 21 C6.81175432 22.59412284 3.37103338 22.10174735 -0.125 22.0625 C-0.87910156 22.05798828 -1.63320313 22.05347656 -2.41015625 22.04882812 C-4.27347127 22.03703499 -6.13674555 22.01909942 -8 22 C-9.60725635 18.78548731 -9.05748185 15.56387464 -9 12 C-9.66 11.67 -10.32 11.34 -11 11 C-10.35177251 7.49957156 -9.19256847 4.8190166 -7 2 C-4.4375 1.8125 -4.4375 1.8125 -2 2 C-1.34 1.34 -0.68 0.68 0 0 Z M0 14 C-0.33 15.65 -0.66 17.3 -1 19 C-0.01 19 0.98 19 2 19 C1.67 17.35 1.34 15.7 1 14 C0.67 14 0.34 14 0 14 Z " fill="#000000" transform="translate(20,9)"/>
<path d="" fill="#000000" transform="translate(0,0)"/>
<path d="" fill="#000000" transform="translate(0,0)"/>
<path d="" fill="#000000" transform="translate(0,0)"/>
<path d="" fill="#000000" transform="translate(0,0)"/>
<path d="" fill="#000000" transform="translate(0,0)"/>
<path d="" fill="#000000" transform="translate(0,0)"/>
<path d="" fill="#000000" transform="translate(0,0)"/>
<path d="" fill="#000000" transform="translate(0,0)"/>
<path d="" fill="#000000" transform="translate(0,0)"/>
</svg>
