<?xml version="1.0" encoding="UTF-8"?>
<svg version="1.1" xmlns="http://www.w3.org/2000/svg" width="46" height="46">
<path d="M0 0 C1.83460276 3.1450333 1.85077092 4.61667128 1.3125 8.25 C-0.16998543 11.68854258 -1.87518156 14.97488168 -3.6875 18.25 C-2.3675 18.91 -1.0475 19.57 0.3125 20.25 C0.3125 20.58 0.3125 20.91 0.3125 21.25 C-4.3075 21.25 -8.9275 21.25 -13.6875 21.25 C-13.3575 20.59 -13.0275 19.93 -12.6875 19.25 C-11.6975 19.25 -10.7075 19.25 -9.6875 19.25 C-10.03683594 18.60933594 -10.38617188 17.96867187 -10.74609375 17.30859375 C-13.40747881 12.24970034 -15.56978746 8.01791423 -15.6875 2.25 C-15.0275 1.26 -14.3675 0.27 -13.6875 -0.75 C-13.3575 -1.41 -13.0275 -2.07 -12.6875 -2.75 C-4.23021845 -4.3868932 -4.23021845 -4.3868932 0 0 Z M-7.6875 1.25 C-8.3475 2.9 -9.0075 4.55 -9.6875 6.25 C-8.3675 6.58 -7.0475 6.91 -5.6875 7.25 C-5.3575 5.6 -5.0275 3.95 -4.6875 2.25 C-5.6775 1.92 -6.6675 1.59 -7.6875 1.25 Z " fill="#696A6B" transform="translate(29.6875,12.75)"/>
<path d="M0 0 C0.6875 2.125 0.6875 2.125 1 4 C-0.9375 4.5625 -0.9375 4.5625 -3 5 C-3.33 4.67 -3.66 4.34 -4 4 C-8.14276875 3.75266863 -8.14276875 3.75266863 -12 5 C-12.33 3.68 -12.66 2.36 -13 1 C-8.31977954 -1.34011023 -4.48993405 -2.99328937 0 0 Z " fill="#7A7B7B" transform="translate(28,11)"/>
<path d="" fill="#000000" transform="translate(0,0)"/>
<path d="" fill="#000000" transform="translate(0,0)"/>
<path d="" fill="#000000" transform="translate(0,0)"/>
<path d="" fill="#000000" transform="translate(0,0)"/>
<path d="" fill="#000000" transform="translate(0,0)"/>
<path d="" fill="#000000" transform="translate(0,0)"/>
</svg>
