<?xml version="1.0" encoding="UTF-8"?>
<svg version="1.1" xmlns="http://www.w3.org/2000/svg" width="41" height="61">
<path d="M0 0 C0.67675781 -0.00773437 1.35351562 -0.01546875 2.05078125 -0.0234375 C5.74919257 -0.00884811 7.34603337 0.14735558 10.5 2.25 C10.28537109 3.18392578 10.28537109 3.18392578 10.06640625 4.13671875 C9.28651988 8.4234045 8.87374123 12.72917048 8.4375 17.0625 C8.34662109 17.94615234 8.25574219 18.82980469 8.16210938 19.74023438 C7.93927398 21.90994746 7.71863702 24.07986051 7.5 26.25 C4.35069107 27.29976964 2.11185544 27.35131595 -1.1875 27.3125 C-2.18136719 27.30347656 -3.17523438 27.29445313 -4.19921875 27.28515625 C-5.33810547 27.26775391 -5.33810547 27.26775391 -6.5 27.25 C-7.94915507 22.9025348 -8.24513847 18.41477152 -8.75 13.87890625 C-8.87498629 10.25955241 -8.87498629 10.25955241 -10.5 7.25 C-10.75 4.8125 -10.75 4.8125 -10.5 2.25 C-6.87653931 -0.16564046 -4.18396018 -0.04781669 0 0 Z " fill="#6D6E6E" transform="translate(20.5,16.75)"/>
<path d="M0 0 C0.68126953 -0.01224609 1.36253906 -0.02449219 2.06445312 -0.03710938 C5.79079809 -0.04805848 7.38241571 0.06744381 10.5625 2.1875 C10.5625 3.5075 10.5625 4.8275 10.5625 6.1875 C3.9625 6.1875 -2.6375 6.1875 -9.4375 6.1875 C-9.4375 4.5375 -9.4375 2.8875 -9.4375 1.1875 C-6.41888236 -0.32180882 -3.30758697 0.00311156 0 0 Z " fill="#979797" transform="translate(20.4375,16.8125)"/>
<path d="M0 0 C0.33 1.32 0.66 2.64 1 4 C7.27 4 13.54 4 20 4 C19.67 6.97 19.34 9.94 19 13 C18.34 12.360625 17.68 11.72125 17 11.0625 C13.14309088 8.41087498 10.62159967 8.31332879 6 8 C5.34 9.98 4.68 11.96 4 14 C3.34 14 2.68 14 2 14 C1.77213542 11.94921875 1.54427083 9.8984375 1.31640625 7.84765625 C1.18113386 5.98859771 1.18113386 5.98859771 0 5 C-0.04063832 3.33382885 -0.042721 1.66611905 0 0 Z " fill="#646464" transform="translate(10,19)"/>
<path d="M0 0 C4.29 0 8.58 0 13 0 C13.33 1.32 13.66 2.64 14 4 C10.85069107 5.04976964 8.61185544 5.10131595 5.3125 5.0625 C4.31863281 5.05347656 3.32476562 5.04445313 2.30078125 5.03515625 C1.16189453 5.01775391 1.16189453 5.01775391 0 5 C-0.33 4.34 -0.66 3.68 -1 3 C-0.67 2.01 -0.34 1.02 0 0 Z " fill="#A4A4A3" transform="translate(14,39)"/>
<path d="M0 0 C0.68513672 0.00773437 1.37027344 0.01546875 2.07617188 0.0234375 C2.75744141 0.01570313 3.43871094 0.00796875 4.140625 0 C7.8527663 0.01454316 9.4745656 0.16403332 12.63867188 2.2734375 C12.30867188 3.5934375 11.97867187 4.9134375 11.63867188 6.2734375 C11.63867188 5.6134375 11.63867188 4.9534375 11.63867188 4.2734375 C9.65867187 4.2734375 7.67867187 4.2734375 5.63867188 4.2734375 C6.29867188 3.6134375 6.95867188 2.9534375 7.63867188 2.2734375 C2.68867188 2.2734375 -2.26132812 2.2734375 -7.36132812 2.2734375 C-4.8781341 -0.20975652 -3.39466766 0.01332549 0 0 Z " fill="#606060" transform="translate(18.361328125,16.7265625)"/>
<path d="M0 0 C0.66 0 1.32 0 2 0 C2 2.64 2 5.28 2 8 C-0.64 8 -3.28 8 -6 8 C-5.04956626 6.66102417 -4.08940853 5.32894573 -3.125 4 C-2.59132813 3.2575 -2.05765625 2.515 -1.5078125 1.75 C-1.01023437 1.1725 -0.51265625 0.595 0 0 Z " fill="#5F5F5F" transform="translate(26,32)"/>
<path d="M0 0 C2.64 0.33 5.28 0.66 8 1 C8 1.99 8 2.98 8 4 C5.36 4 2.72 4 0 4 C0 2.68 0 1.36 0 0 Z " fill="#9E9F9F" transform="translate(16,26)"/>
<path d="M0 0 C1.98 0.495 1.98 0.495 4 1 C3.67 3.64 3.34 6.28 3 9 C0.9375 7.3125 0.9375 7.3125 -1 5 C-0.75 2.25 -0.75 2.25 0 0 Z " fill="#525252" transform="translate(26,23)"/>
<path d="" fill="#000000" transform="translate(0,0)"/>
<path d="" fill="#000000" transform="translate(0,0)"/>
</svg>
