<?xml version="1.0" encoding="UTF-8"?>
<svg version="1.1" xmlns="http://www.w3.org/2000/svg" width="189" height="64">
<path d="M0 0 C2.08304538 -0.05418326 4.16649768 -0.09287551 6.25 -0.125 C7.99023438 -0.15980469 7.99023438 -0.15980469 9.765625 -0.1953125 C12.88627607 -0.00686739 14.37725797 0.42752827 17 2 C17.886875 2.28875 18.77375 2.5775 19.6875 2.875 C22 4 22 4 22.875 6 C23 8 23 8 22 10 C19.3147536 11.37891032 17.70223141 12.11387536 14.6875 11.625 C14.130625 11.41875 13.57375 11.2125 13 11 C13 10.34 13 9.68 13 9 C12.01 9.33 11.02 9.66 10 10 C9.195625 9.814375 8.39125 9.62875 7.5625 9.4375 C4.48985194 8.91290155 3.65348944 9.50741219 1 11 C0.13375 11.12375 -0.7325 11.2475 -1.625 11.375 C-4.12798134 11.74271696 -4.12798134 11.74271696 -5.125 13.8125 C-5.41375 14.534375 -5.7025 15.25625 -6 16 C-6.53625 16.70125 -7.0725 17.4025 -7.625 18.125 C-9.19712122 19.88127926 -9.19712122 19.88127926 -9 22 C-9.66 22 -10.32 22 -11 22 C-9.80764548 29.06787905 -9.80764548 29.06787905 -6 35 C-5.67 35.66 -5.34 36.32 -5 37 C-3.11736119 37.90343684 -3.11736119 37.90343684 -0.9375 38.625 C-0.20402344 38.88539062 0.52945312 39.14578125 1.28515625 39.4140625 C2.13400391 39.70410156 2.13400391 39.70410156 3 40 C3 40.66 3 41.32 3 42 C9.58007063 40.87124382 9.58007063 40.87124382 15.875 38.75 C18 38 18 38 20.1328125 38.953125 C20.74898437 39.29859375 21.36515625 39.6440625 22 40 C21.89300781 39.154375 21.78601562 38.30875 21.67578125 37.4375 C20.92888584 30.37010257 20.64468172 25.35113817 24 19 C24.99 18.34 25.98 17.68 27 17 C28.0209375 15.9790625 28.0209375 15.9790625 29.0625 14.9375 C33.91504443 11.73688559 39.31511892 12 45 12 C45 12.66 45 13.32 45 14 C45.5775 13.773125 46.155 13.54625 46.75 13.3125 C49 13 49 13 51 14.1875 C56.65776208 19.31484688 59.60560848 23.11998104 60.12890625 30.921875 C60.24439644 35.01792699 60.13273879 38.37434405 58 42 C55.9375 43.125 55.9375 43.125 54 44 C53.67 44.99 53.34 45.98 53 47 C46.2374456 50.52639639 39.40840364 50.86413603 32.1875 48.6875 C28.68817033 47.54916384 28.15493853 47.23240779 26 44 C25.01 43.67 24.02 43.34 23 43 C22.9175 43.61875 22.835 44.2375 22.75 44.875 C22 47 22 47 20.3125 48.1875 C12.04335885 51.09287392 2.17995868 51.17182071 -6 48 C-9.47334417 45.85469919 -12.19423956 42.94964559 -15 40 C-15.8353125 39.13375 -15.8353125 39.13375 -16.6875 38.25 C-20.54800777 31.63198667 -20.36960396 24.33442118 -19 17 C-18.0625 13.9375 -18.0625 13.9375 -17 12 C-16.34 11.67 -15.68 11.34 -15 11 C-14.71125 10.360625 -14.4225 9.72125 -14.125 9.0625 C-12.74291513 6.52867774 -11.57900338 6.17227426 -9 5 C-8.505 4.484375 -8.01 3.96875 -7.5 3.4375 C-5.69756529 1.71016673 -4.45639937 1.31695476 -2 1 C-1.34 1.33 -0.68 1.66 0 2 C0 1.34 0 0.68 0 0 Z M37 20 C37 20.66 37 21.32 37 22 C35.35 22.33 33.7 22.66 32 23 C30.40861915 27.17737474 29.78721942 30.53160785 30 35 C30.66 35 31.32 35 32 35 C32.185625 36.2065625 32.185625 36.2065625 32.375 37.4375 C32.58125 38.283125 32.7875 39.12875 33 40 C33.66 40.33 34.32 40.66 35 41 C35.66 40.67 36.32 40.34 37 40 C37.33 40.66 37.66 41.32 38 42 C43.61925626 41.59862455 46.08656763 39.82025541 50 36 C50 35.34 50 34.68 50 34 C50.66 34 51.32 34 52 34 C52 32.02 52 30.04 52 28 C51.34 28 50.68 28 50 28 C49.731875 27.05125 49.46375 26.1025 49.1875 25.125 C48.25013412 21.74732727 48.25013412 21.74732727 45 20 C42.94290404 19.75944532 42.94290404 19.75944532 40.8125 19.875 C39.554375 19.91625 38.29625 19.9575 37 20 Z " fill="#DA7051" transform="translate(27,5)"/>
<path d="M0 0 C1.09570312 0.00902344 2.19140625 0.01804687 3.3203125 0.02734375 C4.16335937 0.03894531 5.00640625 0.05054688 5.875 0.0625 C6.97158936 3.35226808 6.67453138 4.77553767 5.875 8.0625 C4.946875 8.041875 4.01875 8.02125 3.0625 8 C-0.14786011 7.90480396 -0.14786011 7.90480396 -3.125 9.0625 C-2.795 10.0525 -2.465 11.0425 -2.125 12.0625 C-2.455 12.7225 -2.785 13.3825 -3.125 14.0625 C1.165 14.0625 5.455 14.0625 9.875 14.0625 C9.66875 12.969375 9.4625 11.87625 9.25 10.75 C8.77251786 6.054759 10.32738023 4.88392965 12.875 1.0625 C15.78664898 -0.02625763 18.54018666 -0.0453649 21.625 0 C22.42421875 0.00902344 23.2234375 0.01804687 24.046875 0.02734375 C24.65015625 0.03894531 25.2534375 0.05054688 25.875 0.0625 C25.875 2.7025 25.875 5.3425 25.875 8.0625 C23.895 7.7325 21.915 7.4025 19.875 7.0625 C19.545 8.3825 19.215 9.7025 18.875 11.0625 C18.215 11.0625 17.555 11.0625 16.875 11.0625 C16.875 12.0525 16.875 13.0425 16.875 14.0625 C18.5765625 14.0315625 18.5765625 14.0315625 20.3125 14 C23.875 14.0625 23.875 14.0625 24.875 15.0625 C24.91580783 17.06208364 24.91754356 19.06295254 24.875 21.0625 C22.565 20.7325 20.255 20.4025 17.875 20.0625 C17.875 29.6325 17.875 39.2025 17.875 49.0625 C14.905 49.0625 11.935 49.0625 8.875 49.0625 C9.205 39.4925 9.535 29.9225 9.875 20.0625 C5.585 20.0625 1.295 20.0625 -3.125 20.0625 C-3.125 28.9725 -3.125 37.8825 -3.125 47.0625 C-5.435 47.7225 -7.745 48.3825 -10.125 49.0625 C-12.125 47.0625 -12.125 47.0625 -12.26025391 44.35693359 C-12.20788574 43.23625488 -12.15551758 42.11557617 -12.1015625 40.9609375 C-12.02421875 39.14335938 -12.02421875 39.14335938 -11.9453125 37.2890625 C-11.88085938 36.01804688 -11.81640625 34.74703125 -11.75 33.4375 C-11.69328125 32.15875 -11.6365625 30.88 -11.578125 29.5625 C-11.43630977 26.39529313 -11.28486504 23.22883887 -11.125 20.0625 C-12.115 20.3925 -13.105 20.7225 -14.125 21.0625 C-16.3125 20.625 -16.3125 20.625 -18.125 20.0625 C-19.25 15.3125 -19.25 15.3125 -18.125 13.0625 C-15.815 13.3925 -13.505 13.7225 -11.125 14.0625 C-11.3725 13.03125 -11.62 12 -11.875 10.9375 C-12.18003201 6.20950379 -11.10584964 4.63951957 -8.125 1.0625 C-5.36047967 -0.31976016 -3.0788637 -0.03275387 0 0 Z " fill="#D66443" transform="translate(104.125,4.9375)"/>
<path d="M0 0 C5.22362309 -0.43530192 5.22362309 -0.43530192 8 0 C10.7327424 2.59260176 11.81311669 4.43935006 13 8 C13.99 8.33 14.98 8.66 16 9 C16.33 8.01 16.66 7.02 17 6 C18 5 19 4 20 3 C20.33 2.01 20.66 1.02 21 0 C23.31 0.33 25.62 0.66 28 1 C28 4.90120363 27.9807081 5.8874587 26 9 C24.700625 10.175625 24.700625 10.175625 23.375 11.375 C20.68336887 13.82382358 20.68336887 13.82382358 20.6875 17.3125 C20.790625 18.199375 20.89375 19.08625 21 20 C21.66 20 22.32 20 23 20 C23.268125 20.5775 23.53625 21.155 23.8125 21.75 C24.9400686 24.02927477 24.9400686 24.02927477 26.5 26 C28.89118564 29.18824752 30.08574789 32.15051742 31 36 C27.86923435 36.5009225 25.11297392 36.67430868 22 36 C18.52874538 32.93586784 16.4535884 29.3607652 15 25 C11.97392788 26.51303606 10.49050192 29.01899616 9 32 C8.33333333 33.33333333 7.66666667 34.66666667 7 36 C4.36 36 1.72 36 -1 36 C-2 34 -2 34 -1.1875 30.9375 C0 28 0 28 2 27 C2.66 26.01 3.32 25.02 4 24 C4.515625 23.34 5.03125 22.68 5.5625 22 C7.17779131 19.96146601 7.17779131 19.96146601 8 17 C6.77731641 13.33194922 4.79316637 10.97620476 2.375 8 C0.55829177 5.3575153 0 3.18131339 0 0 Z " fill="#D97154" transform="translate(142,18)"/>
<path d="M0 0 C6.72 0.72 6.72 0.72 8 2 C8.35597175 6.23426746 8.46944471 10.4817913 8.61254883 14.72802734 C8.68696371 16.85963793 8.77765974 18.99015632 8.86914062 21.12109375 C8.9176713 22.47392267 8.96522913 23.8267869 9.01171875 25.1796875 C9.05772217 26.41444824 9.10372559 27.64920898 9.15112305 28.92138672 C9 32 9 32 7 35 C3.375 35.6875 3.375 35.6875 0 36 C-1.50076427 32.99847145 -1.14221592 29.9117999 -1.1328125 26.62109375 C-1.13424759 25.53019188 -1.13424759 25.53019188 -1.13571167 24.41725159 C-1.13639235 22.87981072 -1.13454585 21.34236699 -1.13037109 19.80493164 C-1.12501351 17.443457 -1.13032377 15.08217189 -1.13671875 12.72070312 C-1.1360581 11.22916624 -1.13477721 9.73762948 -1.1328125 8.24609375 C-1.13483673 7.53569443 -1.13686096 6.8252951 -1.13894653 6.09336853 C-1.11495714 1.11495714 -1.11495714 1.11495714 0 0 Z " fill="#DA532A" transform="translate(132,18)"/>
<path d="M0 0 C6.72 0.72 6.72 0.72 8 2 C8.17106564 4.19307663 8.27521779 6.39143068 8.3515625 8.58984375 C8.37471527 9.2495668 8.39786804 9.90928986 8.42172241 10.58900452 C8.46941712 11.98690963 8.51464441 13.38490075 8.55761719 14.78295898 C8.62461833 16.92529632 8.70240292 19.06705414 8.78125 21.20898438 C8.82617388 22.56508269 8.8704657 23.92120212 8.9140625 25.27734375 C8.9548291 26.51734131 8.9955957 27.75733887 9.03759766 29.03491211 C9 32 9 32 8 34 C7.34 34 6.68 34 6 34 C6 23.44 6 12.88 6 2 C4.35 2 2.7 2 1 2 C1 13.22 1 24.44 1 36 C-1.46906968 33.53093032 -1.23647118 32.13726231 -1.25224304 28.76768494 C-1.24505753 28.05930984 -1.23787201 27.35093475 -1.23046875 26.62109375 C-1.23001053 25.89382584 -1.22955231 25.16655792 -1.2290802 24.41725159 C-1.22605836 22.87979501 -1.21817405 21.34234148 -1.20581055 19.80493164 C-1.18754573 17.44341265 -1.1853009 15.08228539 -1.18554688 12.72070312 C-1.18063203 11.22916326 -1.17480386 9.73762606 -1.16796875 8.24609375 C-1.16685593 7.53569443 -1.1657431 6.8252951 -1.16459656 6.09336853 C-1.11605365 1.11605365 -1.11605365 1.11605365 0 0 Z " fill="#DF8871" transform="translate(132,18)"/>
<path d="M0 0 C3.3 0.33 6.6 0.66 10 1 C10 2.65 10 4.3 10 6 C7.69 6.33 5.38 6.66 3 7 C2.01 4.69 1.02 2.38 0 0 Z " fill="#C89287" transform="translate(171,13)"/>
<path d="M0 0 C4.29 0 8.58 0 13 0 C13 0.99 13 1.98 13 3 C11.20841511 3.02696365 9.41671527 3.04637917 7.625 3.0625 C6.62726562 3.07410156 5.62953125 3.08570313 4.6015625 3.09765625 C2 3 2 3 0 2 C0 1.34 0 0.68 0 0 Z " fill="#DA8B74" transform="translate(27,5)"/>
<path d="M0 0 C0.99 0 1.98 0 3 0 C3 3.3 3 6.6 3 10 C2.34 10 1.68 10 1 10 C0 3.375 0 3.375 0 0 Z " fill="#D88A74" transform="translate(48,31)"/>
<path d="M0 0 C1.32 0.66 2.64 1.32 4 2 C2.68 3.65 1.36 5.3 0 7 C-1.32 6.67 -2.64 6.34 -4 6 C-3.525625 5.566875 -3.05125 5.13375 -2.5625 4.6875 C-0.76313043 2.97690387 -0.76313043 2.97690387 0 0 Z " fill="#D77E66" transform="translate(163,18)"/>
<path d="M0 0 C0.66 0 1.32 0 2 0 C1.50168276 3.68754757 0.89932357 5.60490662 -2 8 C-2.6875 6.25 -2.6875 6.25 -3 4 C-1.6875 1.75 -1.6875 1.75 0 0 Z " fill="#E19E8C" transform="translate(96,6)"/>
<path d="M0 0 C2 1 2 1 2 1 Z " fill="#FFFFFF" transform="translate(177,19)"/>
<path d="M0 0 C2 1 2 1 2 1 Z " fill="#FFFFFF" transform="translate(171,19)"/>
<path d="M0 0 C2 1 2 1 2 1 Z " fill="#FFFFFF" transform="translate(177,13)"/>
<path d="" fill="#FFFFFF" transform="translate(0,0)"/>
<path d="" fill="#FFFFFF" transform="translate(0,0)"/>
<path d="" fill="#FFFFFF" transform="translate(0,0)"/>
<path d="" fill="#FFFFFF" transform="translate(0,0)"/>
<path d="" fill="#FFFFFF" transform="translate(0,0)"/>
<path d="" fill="#FFFFFF" transform="translate(0,0)"/>
<path d="" fill="#FFFFFF" transform="translate(0,0)"/>
<path d="" fill="#FFFFFF" transform="translate(0,0)"/>
<path d="" fill="#FFFFFF" transform="translate(0,0)"/>
<path d="" fill="#FFFFFF" transform="translate(0,0)"/>
<path d="" fill="#FFFFFF" transform="translate(0,0)"/>
<path d="" fill="#FFFFFF" transform="translate(0,0)"/>
<path d="" fill="#FFFFFF" transform="translate(0,0)"/>
<path d="" fill="#FFFFFF" transform="translate(0,0)"/>
<path d="" fill="#FFFFFF" transform="translate(0,0)"/>
<path d="" fill="#FFFFFF" transform="translate(0,0)"/>
<path d="" fill="#FFFFFF" transform="translate(0,0)"/>
<path d="" fill="#FFFFFF" transform="translate(0,0)"/>
<path d="" fill="#FFFFFF" transform="translate(0,0)"/>
<path d="" fill="#FFFFFF" transform="translate(0,0)"/>
<path d="" fill="#FFFFFF" transform="translate(0,0)"/>
<path d="" fill="#FFFFFF" transform="translate(0,0)"/>
<path d="" fill="#FFFFFF" transform="translate(0,0)"/>
<path d="" fill="#FFFFFF" transform="translate(0,0)"/>
<path d="" fill="#FFFFFF" transform="translate(0,0)"/>
<path d="" fill="#FFFFFF" transform="translate(0,0)"/>
<path d="" fill="#FFFFFF" transform="translate(0,0)"/>
<path d="" fill="#FFFFFF" transform="translate(0,0)"/>
<path d="" fill="#FFFFFF" transform="translate(0,0)"/>
<path d="" fill="#FFFFFF" transform="translate(0,0)"/>
<path d="" fill="#FFFFFF" transform="translate(0,0)"/>
<path d="" fill="#FFFFFF" transform="translate(0,0)"/>
<path d="" fill="#FFFFFF" transform="translate(0,0)"/>
<path d="" fill="#FFFFFF" transform="translate(0,0)"/>
<path d="" fill="#FFFFFF" transform="translate(0,0)"/>
<path d="" fill="#FFFFFF" transform="translate(0,0)"/>
<path d="" fill="#FFFFFF" transform="translate(0,0)"/>
<path d="" fill="#FFFFFF" transform="translate(0,0)"/>
<path d="" fill="#FFFFFF" transform="translate(0,0)"/>
<path d="" fill="#FFFFFF" transform="translate(0,0)"/>
<path d="" fill="#FFFFFF" transform="translate(0,0)"/>
<path d="" fill="#FFFFFF" transform="translate(0,0)"/>
<path d="" fill="#FFFFFF" transform="translate(0,0)"/>
<path d="" fill="#FFFFFF" transform="translate(0,0)"/>
<path d="" fill="#FFFFFF" transform="translate(0,0)"/>
<path d="" fill="#FFFFFF" transform="translate(0,0)"/>
<path d="" fill="#FFFFFF" transform="translate(0,0)"/>
<path d="" fill="#FFFFFF" transform="translate(0,0)"/>
<path d="" fill="#FFFFFF" transform="translate(0,0)"/>
<path d="" fill="#FFFFFF" transform="translate(0,0)"/>
<path d="" fill="#FFFFFF" transform="translate(0,0)"/>
<path d="" fill="#FFFFFF" transform="translate(0,0)"/>
<path d="" fill="#FFFFFF" transform="translate(0,0)"/>
<path d="" fill="#FFFFFF" transform="translate(0,0)"/>
<path d="" fill="#FFFFFF" transform="translate(0,0)"/>
<path d="" fill="#FFFFFF" transform="translate(0,0)"/>
<path d="" fill="#FFFFFF" transform="translate(0,0)"/>
<path d="" fill="#FFFFFF" transform="translate(0,0)"/>
<path d="" fill="#FFFFFF" transform="translate(0,0)"/>
<path d="" fill="#FFFFFF" transform="translate(0,0)"/>
<path d="" fill="#FFFFFF" transform="translate(0,0)"/>
<path d="" fill="#FFFFFF" transform="translate(0,0)"/>
<path d="" fill="#FFFFFF" transform="translate(0,0)"/>
<path d="" fill="#FFFFFF" transform="translate(0,0)"/>
<path d="" fill="#FFFFFF" transform="translate(0,0)"/>
</svg>
