<svg width="25" height="25" viewBox="0 0 25 25" fill="none" xmlns="http://www.w3.org/2000/svg">
<path d="M21.875 11.7188H20.3125C20.3125 7.41094 16.8078 3.90625 12.5 3.90625C8.19219 3.90625 4.6875 7.41094 4.6875 11.7188H3.125C3.125 6.54922 7.33047 2.34375 12.5 2.34375C17.6695 2.34375 21.875 6.54922 21.875 11.7188Z" fill="#FAFAFC"/>
<path d="M17.188 22.6562C16.9224 22.6562 16.6638 22.5211 16.5177 22.2773C16.2958 21.907 16.4154 21.4273 16.7857 21.2054L18.0373 20.4547C19.4412 19.6125 20.313 18.0719 20.313 16.4351C20.313 16.0039 20.663 15.639 21.0943 15.639C21.5255 15.639 21.8755 15.975 21.8755 16.4062V16.4351C21.8755 18.6179 20.713 20.6711 18.8412 21.7945L17.5896 22.5453C17.4638 22.6211 17.3255 22.6562 17.188 22.6562Z" fill="#FAFAFC"/>
<path d="M4.6875 10.9375H3.125C2.26206 10.9375 1.5625 11.6371 1.5625 12.5V15.625C1.5625 16.4879 2.26206 17.1875 3.125 17.1875H4.6875C5.55045 17.1875 6.25 16.4879 6.25 15.625V12.5C6.25 11.6371 5.55045 10.9375 4.6875 10.9375Z" fill="#B8C2CE"/>
<path d="M21.875 10.9375H20.3125C19.4496 10.9375 18.75 11.6371 18.75 12.5V15.625C18.75 16.4879 19.4496 17.1875 20.3125 17.1875H21.875C22.7379 17.1875 23.4375 16.4879 23.4375 15.625V12.5C23.4375 11.6371 22.7379 10.9375 21.875 10.9375Z" fill="#B8C2CE"/>
<path d="M15.625 8.59375H9.375C8.08058 8.59375 7.03125 9.64308 7.03125 10.9375V17.1875C7.03125 18.4819 8.08058 19.5312 9.375 19.5312H15.625C16.9194 19.5312 17.9688 18.4819 17.9688 17.1875V10.9375C17.9688 9.64308 16.9194 8.59375 15.625 8.59375Z" fill="#FAFAFC"/>
<path d="M17.9688 15.625V17.1875C17.9688 18.4766 16.9141 19.5312 15.625 19.5312H9.375C8.08594 19.5312 7.03125 18.4766 7.03125 17.1875V15.625H17.9688Z" fill="#B8C2CE"/>
<path d="M10.9375 14.0625C10.5063 14.0625 10.1562 13.7125 10.1562 13.2812V12.5C10.1562 12.0688 10.5063 11.7188 10.9375 11.7188C11.3687 11.7188 11.7188 12.0688 11.7188 12.5V13.2812C11.7188 13.7125 11.3687 14.0625 10.9375 14.0625ZM14.8438 13.2812V12.5C14.8438 12.0688 14.4938 11.7188 14.0625 11.7188C13.6312 11.7188 13.2812 12.0688 13.2812 12.5V13.2812C13.2812 13.7125 13.6312 14.0625 14.0625 14.0625C14.4938 14.0625 14.8438 13.7125 14.8438 13.2812Z" fill="#262626"/>
</svg>
