<?xml version="1.0" encoding="UTF-8"?>
<svg version="1.1" xmlns="http://www.w3.org/2000/svg" width="512" height="512">
<path d="M0 0 C1.19359424 -0.00445784 2.38718848 -0.00891569 3.61695224 -0.01350862 C5.59376185 -0.01323207 5.59376185 -0.01323207 7.61050701 -0.01294994 C9.01950278 -0.01624867 10.4284976 -0.01997425 11.83749121 -0.02409142 C15.71846916 -0.03411838 19.59943164 -0.03782932 23.48042071 -0.04048073 C27.66253259 -0.04438165 31.8446322 -0.05396004 36.02673626 -0.0626936 C46.13015906 -0.08246261 56.23358288 -0.09252415 66.33702019 -0.10142139 C71.09258832 -0.10580302 75.84815533 -0.1111701 80.60372257 -0.11641026 C96.4077411 -0.13342193 112.21175894 -0.14791721 128.01578522 -0.155159 C132.11764623 -0.15706895 136.21950723 -0.15898927 140.32136822 -0.16094494 C141.85064804 -0.16167055 141.85064804 -0.16167055 143.41082241 -0.16241082 C159.93505454 -0.17071531 176.45921438 -0.19605957 192.98341493 -0.22852562 C209.94050642 -0.2615712 226.89756114 -0.27960544 243.85468501 -0.28280324 C253.3787641 -0.28497051 262.90273772 -0.29375097 272.42678547 -0.31926441 C280.5359173 -0.34093716 288.64491805 -0.34903871 296.75407556 -0.33929763 C300.89256176 -0.33474313 305.03077731 -0.3367056 309.16922665 -0.35605907 C312.95739158 -0.37362174 316.74508705 -0.3727497 320.53325649 -0.35716178 C322.55378164 -0.353644 324.57431132 -0.36986325 326.59476882 -0.38676625 C337.52634156 -0.3086896 337.52634156 -0.3086896 342.30647564 4.13422108 C343.95881939 6.05194569 343.95881939 6.05194569 345.24397564 8.09906483 C345.98840923 9.2841161 345.98840923 9.2841161 346.74788189 10.4931078 C349.70533337 15.50465386 352.51892026 20.58914335 355.30647564 25.69672108 C356.63618427 28.1166978 357.97028423 30.53422464 359.30647564 32.95062733 C359.80981426 33.86094212 359.80981426 33.86094212 360.32332134 34.7896471 C363.56015519 40.62468725 366.92035663 46.38467208 370.30647564 52.13422108 C375.93092244 61.6933974 381.34303586 71.3571828 386.70100689 81.06781483 C390.80401851 88.4838172 395.01344824 95.82685002 399.30647564 103.13422108 C400.44473368 105.09371872 401.5827524 107.0533554 402.72053814 109.01312733 C404.91978746 112.79374164 407.16149483 116.54346931 409.4440794 120.27434254 C424.19862544 144.49867179 424.19862544 144.49867179 421.30647564 159.13422108 C421.11311626 160.24926014 420.91975689 161.3642992 420.72053814 162.51312733 C416.67308492 181.53615747 405.00571503 198.23679124 388.84749126 208.77899647 C381.21264156 213.68113812 381.21264156 213.68113812 378.30647564 215.13422108 C378.30593087 216.28828009 378.3053861 217.4423391 378.30482483 218.63136959 C378.29078027 246.0272677 378.25102666 273.42302848 378.17962002 300.81883992 C378.17085328 304.19089358 378.16230347 307.56294777 378.15388775 310.93500233 C378.15136915 311.94197402 378.15136915 311.94197402 378.14879968 312.96928857 C378.12213086 323.83870721 378.11303469 334.70807311 378.11043421 345.5775211 C378.10737461 356.73083664 378.08505491 367.88402178 378.04595107 379.0372752 C378.02459807 385.30184314 378.01203244 391.56615341 378.02032185 397.83075809 C378.02784717 403.725795 378.01210028 409.62030915 377.97841549 415.51525021 C377.970164 417.67999131 377.9704536 419.84478422 377.97987843 422.00952053 C377.99146892 424.96390706 377.97242936 427.9165714 377.94571209 430.87082386 C377.95638535 431.72881018 377.96705861 432.5867965 377.9780553 433.4707824 C377.90876271 437.57364063 377.59897338 440.30605981 375.01652336 443.5881834 C370.5072212 447.824586 367.67440657 448.38433371 361.49039173 448.38869667 C360.80209422 448.39190315 360.1137967 448.39510963 359.40464169 448.39841327 C357.08717795 448.40674632 354.76997044 448.40077753 352.45250225 448.39491749 C350.7786555 448.39793667 349.10481013 448.40182498 347.43096721 448.40651006 C342.82252568 448.41682894 338.21416161 448.41459837 333.60571361 448.41032946 C328.63901563 448.40786926 323.67233665 448.4168676 318.70564556 448.42436695 C308.97183762 448.43713583 299.23805723 448.43890491 289.50424232 448.43656669 C281.59439276 448.43478576 273.68455158 448.43652832 265.77470303 448.44079113 C264.08791948 448.44168391 264.08791948 448.44168391 262.36705949 448.44259473 C260.08279801 448.44380645 257.79853654 448.44502058 255.51427506 448.44623711 C234.07773011 448.45712114 212.64120088 448.45494611 191.20465504 448.44885226 C171.58303511 448.44368269 151.96146483 448.45493808 132.33985473 448.47395048 C112.20513347 448.49331089 92.0704357 448.50158802 71.93570507 448.49782723 C60.62649997 448.49591241 49.31733713 448.49843004 38.00813961 448.51254177 C28.38023591 448.52443369 18.75240048 448.52588514 9.12449588 448.5137516 C4.21038377 448.50784742 -0.70360335 448.50680587 -5.61770725 448.51875401 C-10.11446964 448.52956053 -14.61100191 448.52657213 -19.10775329 448.51249232 C-20.73626255 448.5098309 -22.36478954 448.51225697 -23.99328147 448.52022818 C-26.20438621 448.53030166 -28.41468598 448.52194092 -30.62575817 448.50895119 C-31.85464319 448.5090062 -33.08352821 448.50906122 -34.34965217 448.5091179 C-38.09032225 448.08973425 -40.49220419 447.08616377 -43.69352436 445.13422108 C-47.90358244 439.47241883 -47.83716913 434.06794306 -47.81377888 427.22522449 C-47.8146333 426.31525817 -47.81548773 425.40529185 -47.81636804 424.46775079 C-47.81801791 421.41221839 -47.81250949 418.35674063 -47.80704975 415.30121326 C-47.80676775 413.11345896 -47.80692587 410.92570457 -47.80749226 408.73795033 C-47.80777972 402.79208757 -47.80189126 396.84624489 -47.7949183 390.90038681 C-47.78867623 384.6890463 -47.78808028 378.47770535 -47.78689289 372.26636219 C-47.78413576 361.83884813 -47.77788526 351.41134097 -47.76896381 340.98383045 C-47.75978437 330.24359645 -47.75270614 319.50336446 -47.748456 308.76312733 C-47.74819328 308.1010652 -47.74793055 307.43900308 -47.74765987 306.75687847 C-47.74635483 303.4354972 -47.74509338 300.11411591 -47.74384797 296.79273462 C-47.73338928 269.23989163 -47.71579469 241.68705687 -47.69352436 214.13422108 C-48.46752583 213.83113026 -49.24152729 213.52803944 -50.03898335 213.21576405 C-67.08937178 206.26890294 -78.70140566 191.33513146 -86.00602436 175.00922108 C-88.16063848 169.69450624 -90.02447444 164.82994872 -90.69352436 159.13422108 C-90.91524311 158.04238514 -91.13696186 156.9505492 -91.36539936 155.82562733 C-93.14980542 140.3043712 -83.46060229 127.62493009 -75.75376606 114.89575672 C-73.56676984 111.26217788 -71.45118132 107.58675071 -69.32243061 103.91888905 C-68.19317857 101.97627562 -67.0590427 100.03649314 -65.92008686 98.09955311 C-60.8505059 89.47637982 -55.99525101 80.74090582 -51.1559267 71.98700428 C-45.97673358 62.62316835 -40.69266734 53.32442664 -35.36100483 44.04681873 C-33.79128558 41.30498115 -32.22970837 38.55872533 -30.67147541 35.81035328 C-29.24189628 33.28914679 -27.80977055 30.76939048 -26.37757587 28.24966908 C-25.68285689 27.02596831 -24.98923548 25.80164365 -24.29682636 24.57663441 C-10.41168565 0.01800059 -10.41168565 0.01800059 0 0 Z M5.30647564 26.13422108 C0.68647564 34.38422108 -3.93352436 42.63422108 -8.69352436 51.13422108 C-12.68444547 58.13956132 -16.6827361 65.14029024 -20.69352436 72.13422108 C-28.69347166 86.08982535 -36.68000948 100.05273857 -44.56852436 114.07172108 C-45.15746479 115.11360584 -45.74640522 116.15549061 -46.35319233 117.22894764 C-46.89604877 118.19671131 -47.43890522 119.16447498 -47.99821186 120.16156483 C-48.47242573 121.00453114 -48.9466396 121.84749744 -49.43522358 122.71600819 C-50.68186882 125.11182137 -51.69049136 127.62663858 -52.69352436 130.13422108 C91.18647564 130.13422108 235.06647564 130.13422108 383.30647564 130.13422108 C381.81825209 126.41366221 380.32456878 123.19356003 378.39241314 119.72406483 C377.80443951 118.66606678 377.21646587 117.60806873 376.61067486 116.51801014 C375.97403912 115.38073475 375.33740337 114.24345936 374.68147564 113.07172108 C374.01098728 111.86961626 373.34057861 110.66746698 372.67024517 109.46527576 C366.90239958 99.13733108 361.03745276 88.86531183 355.15434551 78.60272694 C350.79450257 70.99707328 346.47023125 63.37194487 342.16926861 55.73285389 C336.59340585 45.84038106 330.94091859 35.99449624 325.30647564 26.13422108 C219.70647564 26.13422108 114.10647564 26.13422108 5.30647564 26.13422108 Z M-63.69352436 156.13422108 C-60.60306261 170.04129897 -54.25476913 180.04778373 -42.19352436 188.07172108 C-30.01740402 195.24904582 -17.40743622 196.55804711 -3.69352436 193.13422108 C8.39308159 189.58455707 18.28320433 181.27366565 24.88069439 170.58343983 C27.61016385 165.42951326 28.44149059 162.18911645 29.30647564 156.13422108 C-1.38352436 156.13422108 -32.07352436 156.13422108 -63.69352436 156.13422108 Z M58.30647564 156.13422108 C59.9573745 169.34141194 66.90869781 178.20333991 77.24397564 186.50922108 C88.26000666 194.21608863 101.15540439 196.26640869 114.23616314 194.08343983 C126.57572806 191.53396719 137.32487261 183.97554688 144.61897564 173.82172108 C147.76099914 168.79798434 151.30647564 162.18013606 151.30647564 156.13422108 C120.61647564 156.13422108 89.92647564 156.13422108 58.30647564 156.13422108 Z M179.30647564 156.13422108 C184.07020523 172.01331973 190.29156135 181.94194749 204.86897564 190.00922108 C216.95595713 195.71333653 229.16052301 196.31904926 241.91975689 192.31390858 C247.84138614 190.17529285 252.56691505 187.25266989 257.30647564 183.13422108 C257.98710064 182.54769764 258.66772564 181.9611742 259.36897564 181.35687733 C267.17641396 174.12612479 270.74090861 166.39648921 273.30647564 156.13422108 C242.28647564 156.13422108 211.26647564 156.13422108 179.30647564 156.13422108 Z M301.30647564 156.13422108 C304.39693739 170.04129897 310.74523087 180.04778373 322.80647564 188.07172108 C333.94506947 194.62837257 345.94728633 196.66311698 358.68538189 193.85297108 C371.96457213 190.21158359 382.5864366 182.40267144 389.88069439 170.58343983 C392.61016385 165.42951326 393.44149059 162.18911645 394.30647564 156.13422108 C363.61647564 156.13422108 332.92647564 156.13422108 301.30647564 156.13422108 Z M43.30647564 189.13422108 C41.5712524 190.98952897 39.87149512 192.86348189 38.18147564 194.75922108 C21.23035232 213.44005086 5.02882488 217.626628 -20.69352436 221.13422108 C-20.69352436 287.46422108 -20.69352436 353.79422108 -20.69352436 422.13422108 C-6.50352436 422.13422108 7.68647564 422.13422108 22.30647564 422.13422108 C22.32834942 415.86696033 22.32834942 415.86696033 22.35066509 409.47308826 C22.40106959 395.64690548 22.46752661 381.82083858 22.54219055 367.99476719 C22.58705608 359.61450684 22.62649178 351.23428812 22.65291119 342.85394764 C22.67596642 335.54518461 22.7094477 328.23655433 22.7551772 320.92789674 C22.77900851 317.06204848 22.79780309 313.19633086 22.80408955 309.33041096 C22.81018651 305.68269309 22.83034991 302.03530903 22.86075115 298.38771534 C22.87357208 296.42913175 22.87197413 294.47046988 22.86975384 292.51184559 C22.99109216 280.95225048 24.92264713 270.89178175 31.30647564 261.13422108 C31.86335064 260.26797108 32.42022564 259.40172108 32.99397564 258.50922108 C43.12410919 248.10530014 55.45662246 244.28765589 69.62605572 243.98895741 C71.10933408 243.97583929 72.59267217 243.96846177 74.07600689 243.96625233 C74.87826199 243.96292393 75.68051708 243.95959553 76.50708294 243.95616627 C78.19191706 243.9511418 79.87676098 243.94875654 81.56160259 243.94891834 C84.10238272 243.94673533 86.6427253 243.92854099 89.18342876 243.9096117 C105.25423871 243.85093005 120.60759748 245.03364261 133.24397564 256.19672108 C144.27679097 268.68564402 145.59716847 284.02601791 145.6253233 299.98090076 C145.63475914 301.34404171 145.64504175 302.707177 145.65609074 304.07030582 C145.68308129 307.68291839 145.69865722 311.295491 145.71167278 314.90817738 C145.72572391 318.31251701 145.75033071 321.71675063 145.77400494 325.12103748 C145.83696763 335.04203775 145.88322624 344.96313835 145.93147564 354.88422108 C146.05522564 377.07672108 146.17897564 399.26922108 146.30647564 422.13422108 C213.95647564 422.13422108 281.60647564 422.13422108 351.30647564 422.13422108 C351.30647564 355.80422108 351.30647564 289.47422108 351.30647564 221.13422108 C344.04647564 220.14422108 336.78647564 219.15422108 329.30647564 218.13422108 C312.95088545 213.03791399 301.86519229 205.37733542 290.30647564 193.13422108 C288.97763918 191.79640599 287.64599603 190.46133851 286.30647564 189.13422108 C285.85659283 189.75168201 285.40671001 190.36914295 284.94319439 191.00531483 C272.72207059 207.09605298 256.15734239 216.32197052 236.43147564 219.82172108 C216.88045875 221.68561112 196.25884728 217.60429617 180.77229595 204.87299061 C175.50179524 200.33104974 170.54197719 195.68453473 166.30647564 190.13422108 C163.05345768 191.52736138 161.27261348 193.08382263 159.05647564 195.82172108 C146.64214706 210.29641091 130.12440969 217.86418845 111.30647564 220.13422108 C89.78872476 221.60842799 70.19750657 214.78278052 53.93147564 200.63422108 C50.10657459 197.08904252 47.1702323 193.4760457 44.30647564 189.13422108 C43.97647564 189.13422108 43.64647564 189.13422108 43.30647564 189.13422108 Z M52.05647564 276.57172108 C49.02165907 281.01555962 48.05620605 284.61108217 48.06596661 289.97450733 C48.06321728 291.14253391 48.06046795 292.31056049 48.05763531 293.51398182 C48.06482586 294.78640736 48.07201641 296.05883289 48.07942486 297.36981678 C48.07998931 298.73014283 48.07967174 300.09046948 48.07853985 301.45079517 C48.07796667 305.13638556 48.08971526 308.82184543 48.10368776 312.50740552 C48.11620098 316.36177898 48.11736609 320.21615551 48.11973858 324.07054615 C48.12595161 331.36609772 48.14236003 338.66158925 48.16243756 345.9571144 C48.1889849 355.81787335 48.19977063 365.67864875 48.21144199 375.53943443 C48.23024075 391.07107493 48.27008759 406.60258876 48.30647564 422.13422108 C72.06647564 422.13422108 95.82647564 422.13422108 120.30647564 422.13422108 C120.39392002 398.38423599 120.39392002 398.38423599 120.45296001 374.63422108 C120.47074112 364.94504486 120.49161213 355.25594707 120.532794 345.56683826 C120.56277597 338.50940987 120.58206946 331.45204529 120.58874112 324.39455497 C120.59263855 320.66061333 120.60174339 316.92685416 120.62366581 313.19297123 C120.64798931 309.01591757 120.64844001 304.83917744 120.64705181 300.66205311 C120.65783764 299.43565617 120.66862347 298.20925922 120.67973614 296.94569874 C120.69356196 285.27528442 120.69356196 285.27528442 115.56171227 275.1655798 C111.52553869 271.50049535 108.24012794 270.02396738 102.74666119 269.95721912 C101.36458729 269.93796627 101.36458729 269.93796627 99.9545927 269.91832447 C98.96083126 269.91093754 97.96706982 269.90355061 96.94319439 269.89593983 C95.91845516 269.88786808 94.89371593 269.87979633 93.837924 269.87147999 C91.66836009 269.85764665 89.49877448 269.84692114 87.32918072 269.83905506 C84.01715505 269.82184155 80.70612745 269.77794783 77.39436626 269.73383045 C75.28564964 269.72370332 73.17692454 269.71518728 71.06819439 269.70843983 C70.08050564 269.69093174 69.09281689 269.67342365 68.07519817 269.65538502 C60.91408457 269.67789194 57.02951722 271.18425936 52.05647564 276.57172108 Z " fill="#000000" transform="translate(90.69352436065674,31.865778923034668)"/>
<path d="M0 0 C0.68721634 -0.00335861 1.37443268 -0.00671722 2.08247375 -0.01017761 C4.33389133 -0.01960566 6.58523388 -0.02162662 8.83666992 -0.02270508 C10.41696706 -0.02592343 11.9972639 -0.02928793 13.57756042 -0.03279114 C16.8834197 -0.03876214 20.18925291 -0.04063314 23.49511719 -0.04003906 C27.70785021 -0.03993758 31.92041416 -0.05358429 36.13310719 -0.07081127 C39.39585623 -0.08199127 42.65856518 -0.08395643 45.92133141 -0.08342934 C47.47328969 -0.08460064 49.02524931 -0.08897402 50.57718849 -0.0967617 C64.90118768 -0.16191109 77.9842874 0.62311279 89.06713867 10.77026367 C98.68493889 21.06948698 98.91132105 33.01628079 98.95776367 46.31323242 C98.96346375 47.58443436 98.96916382 48.85563629 98.97503662 50.1653595 C98.98446314 52.85083586 98.99137198 55.53620114 98.99487305 58.22167969 C99.00033875 61.62944217 99.02434559 65.03680132 99.052845 68.44443798 C99.07617675 71.7340045 99.07793443 75.02359483 99.08276367 78.31323242 C99.09511047 79.51989059 99.10745728 80.72654877 99.12017822 81.96977234 C99.08631912 95.03148849 96.75950703 105.38209061 87.75463867 115.14526367 C77.09112744 124.85738357 62.97667834 124.6029423 49.37963867 124.54370117 C47.72159701 124.54572805 46.06355623 124.54864456 44.40551758 124.55239868 C40.94953835 124.55679322 37.49379352 124.55048451 34.0378418 124.53637695 C29.6403639 124.51928673 25.24343559 124.52914346 20.84597778 124.54709435 C17.42785612 124.55801043 14.00986164 124.55445027 10.59173584 124.54671097 C8.97165866 124.5447305 7.35156937 124.54709115 5.73150635 124.55414963 C-8.87662894 124.60385127 -21.07980144 123.44359561 -32.24536133 113.14526367 C-41.08411852 103.44066904 -41.70656208 90.80542707 -41.64379883 78.27026367 C-41.64666901 76.98394043 -41.64953918 75.69761719 -41.65249634 74.37231445 C-41.65688 71.66956575 -41.65061858 68.96711761 -41.63647461 66.2644043 C-41.61938462 62.83541929 -41.62924741 59.40713921 -41.647192 55.97817993 C-41.66076519 52.65882112 -41.65120537 49.33964236 -41.64379883 46.02026367 C-41.64987152 44.80741699 -41.65594421 43.59457031 -41.66220093 42.3449707 C-41.56285407 30.14149494 -39.71996783 19.34111328 -31.24536133 10.14526367 C-21.98286515 2.27962509 -11.96541372 0.03697989 0 0 Z M-14.24536133 31.14526367 C-15.52269872 34.18730772 -15.38303711 37.29453304 -15.40649414 40.56884766 C-15.41610168 41.65354843 -15.42570923 42.73824921 -15.43560791 43.8558197 C-15.43985779 45.02254715 -15.44410767 46.1892746 -15.44848633 47.39135742 C-15.4541864 48.59462173 -15.45988647 49.79788605 -15.46575928 51.03761292 C-15.47520295 53.58203249 -15.48174074 56.12646426 -15.4855957 58.67089844 C-15.49531514 62.56426235 -15.52635107 66.45710145 -15.55786133 70.3503418 C-15.56439018 72.82234387 -15.56964111 75.29434972 -15.57348633 77.76635742 C-15.58583313 78.93106064 -15.59817993 80.09576385 -15.61090088 81.29576111 C-15.60789978 82.38361404 -15.60489868 83.47146698 -15.60180664 84.59228516 C-15.60545227 85.54618637 -15.6090979 86.50008759 -15.612854 87.4828949 C-15.01915164 91.78408168 -13.37491559 94.24508291 -10.00146484 96.9335022 C-6.54847437 98.45166028 -3.91864487 98.52626354 -0.14770508 98.53344727 C0.89472855 98.5413327 0.89472855 98.5413327 1.95822144 98.54937744 C4.24475897 98.56253097 6.53059463 98.55385639 8.81713867 98.54370117 C10.41227349 98.54572326 12.0074074 98.54863582 13.60253906 98.55239868 C16.94141463 98.55681572 20.28004901 98.55041112 23.61889648 98.53637695 C27.89283956 98.51928525 32.16621742 98.52912978 36.44013977 98.54709435 C39.73274981 98.55794905 43.02522646 98.55447814 46.31784058 98.54671097 C47.89346382 98.54471362 49.46909928 98.54715188 51.04470825 98.55414963 C53.24912472 98.56179214 55.45263335 98.55012195 57.65698242 98.53344727 C58.90987061 98.53106049 60.16275879 98.52867371 61.45361328 98.5262146 C66.00448973 98.00102609 68.5603154 96.33958695 71.75463867 93.14526367 C72.82043962 90.03804398 72.89184537 87.09631933 72.91577148 83.8293457 C72.92537903 82.76789337 72.93498657 81.70644104 72.94488525 80.61282349 C72.94913513 79.47110687 72.95338501 78.32939026 72.95776367 77.15307617 C72.96346375 75.97437958 72.96916382 74.79568298 72.97503662 73.58126831 C72.98448043 71.08812354 72.99101814 68.59496632 72.99487305 66.10180664 C73.00458365 62.29185197 73.03561585 58.48243563 73.06713867 54.67260742 C73.07366846 52.24943354 73.07891903 49.8262558 73.08276367 47.40307617 C73.10128387 45.69657394 73.10128387 45.69657394 73.12017822 43.95559692 C73.11391421 36.12051497 73.11391421 36.12051497 69.75463867 29.14526367 C66.18442802 26.76512324 63.63884359 26.84933751 59.5168457 26.85473633 C58.78316772 26.8480191 58.04948975 26.84130188 57.2935791 26.8343811 C54.86646769 26.81537252 52.4396324 26.81147543 50.01245117 26.80932617 C48.32477708 26.80289995 46.63710411 26.79617172 44.94943237 26.78915405 C41.41035377 26.77717395 37.87137284 26.77347395 34.33227539 26.7746582 C29.80038084 26.77486137 25.26911355 26.74756501 20.73736763 26.71311378 C17.25089653 26.69085983 13.7645767 26.6868202 10.27804184 26.68787766 C8.60750035 26.6855192 6.93695484 26.67668188 5.26648331 26.66121292 C2.92761779 26.64158365 0.59010875 26.64737792 -1.7487793 26.65942383 C-2.78072922 26.64256531 -2.78072922 26.64256531 -3.83352661 26.62536621 C-8.54295221 26.68690271 -11.01359154 27.71953589 -14.24536133 31.14526367 Z " fill="#000000" transform="translate(300.245361328125,274.854736328125)"/>
</svg>
