<?xml version="1.0" encoding="UTF-8"?>
<svg version="1.1" xmlns="http://www.w3.org/2000/svg" width="512" height="512">
<path d="M0 0 C1.25524831 -0.00453111 2.51049662 -0.00906223 3.80378276 -0.01373065 C7.27651132 -0.02593252 10.74914333 -0.02570351 14.22188842 -0.02334189 C17.97187454 -0.02293301 21.72183 -0.0339798 25.47180176 -0.04345703 C32.81490026 -0.06005313 40.15796664 -0.06556597 47.50108232 -0.06668179 C53.47240397 -0.06763303 59.44371504 -0.07174712 65.41503334 -0.07808304 C82.35685246 -0.09569253 99.29864627 -0.1049225 116.2404746 -0.10342209 C117.15335874 -0.10334218 118.06624287 -0.10326227 119.00679016 -0.10317993 C120.37779483 -0.10305729 120.37779483 -0.10305729 121.77649657 -0.10293217 C136.58280062 -0.1021196 151.38900286 -0.12125064 166.19527747 -0.14945666 C181.41005124 -0.17821137 196.6247754 -0.1919955 211.83957702 -0.19026911 C220.37674466 -0.18960605 228.9138056 -0.19506142 237.45094872 -0.21662521 C244.7210026 -0.2348712 251.99090143 -0.23915647 259.26096835 -0.22560637 C262.96682482 -0.21909356 266.67238411 -0.21889782 270.37821198 -0.23631287 C274.40478931 -0.25503973 278.43068396 -0.24244507 282.45727539 -0.22705078 C284.1953001 -0.24248147 284.1953001 -0.24248147 285.96843642 -0.25822389 C300.22205863 -0.13822059 311.0784356 5.00080785 321.3585968 14.70492554 C331.38099875 25.33902338 334.21765081 37.68458941 333.7960968 52.01742554 C333.77804993 53.20336304 333.76000305 54.38930054 333.7414093 55.61117554 C333.69485598 58.49748119 333.62949089 61.38199005 333.5460968 64.26742554 C334.27087219 64.24647827 334.99564758 64.22553101 335.74238586 64.20394897 C339.09347608 64.11971858 342.44434251 64.06843049 345.7960968 64.01742554 C346.93562805 63.98390991 348.0751593 63.95039429 349.2492218 63.91586304 C363.87109746 63.74970536 374.60453186 68.76166497 385.2960968 78.51742554 C389.37971721 82.81293191 392.13799899 87.88380457 394.5460968 93.26742554 C394.81752502 93.8572522 395.08895325 94.44707886 395.36860657 95.05477905 C398.12826281 101.94531366 398.03614001 108.98412073 397.99214172 116.28866577 C397.9835706 118.46156819 398.01257089 120.63188686 398.04414368 122.80453491 C398.04575476 124.20232059 398.04517994 125.60011087 398.04219055 126.99789429 C398.04404358 128.24981567 398.04589661 129.50173706 398.04780579 130.79159546 C397.29281075 136.02218638 394.80917798 139.06749842 391.0460968 142.64242554 C385.88109672 145.04046129 381.145868 145.02124089 375.5460968 144.26742554 C370.58004431 141.96175831 368.10075612 139.0633868 365.5460968 134.26742554 C364.99786971 130.66479033 364.98604426 127.09429668 364.9835968 123.45492554 C364.98990439 111.23238338 364.98990439 111.23238338 359.2960968 100.82992554 C351.57558601 96.44327168 343.65642944 96.98074364 335.00177002 97.00241089 C333.50682478 96.99883812 332.01188142 96.99438665 330.51694113 96.98913431 C326.41694829 96.97722922 322.31703544 96.97765026 318.21702945 96.9800694 C313.79230673 96.98048921 309.36761144 96.96938776 304.94290161 96.95960999 C297.27808431 96.94416102 289.61328541 96.93574673 281.9484539 96.93190002 C270.85988232 96.92615072 259.77136021 96.9075614 248.68281049 96.88545948 C230.68338992 96.84974643 212.68396656 96.82142962 194.68452454 96.79916382 C193.60745436 96.79782883 192.53038419 96.79649384 191.42067552 96.79511839 C182.6808028 96.78434102 173.94092966 96.77392139 165.20105648 96.76351833 C157.55980344 96.75440813 149.91855058 96.74515566 142.27729797 96.73568726 C141.20123706 96.73435651 140.12517614 96.73302577 139.01650732 96.7316547 C121.08294564 96.70923515 103.14940513 96.67904608 85.21586519 96.64329481 C74.15309636 96.62161926 63.09036047 96.60700625 52.02757157 96.60145605 C44.4507142 96.59721293 36.87388823 96.5859859 29.29704826 96.56923211 C24.92368986 96.55981635 20.55039018 96.55371691 16.17702103 96.55629539 C12.17447212 96.55860472 8.17204667 96.55179779 4.16952283 96.53771657 C2.72078305 96.53425156 1.27203046 96.53416826 -0.17670894 96.53778917 C-2.14503376 96.54222878 -4.11337518 96.53322125 -6.08168125 96.52355194 C-7.1752785 96.52235776 -8.26887574 96.52116359 -9.3956123 96.51993322 C-12.68085319 96.24868742 -15.37983523 95.43005635 -18.4539032 94.26742554 C-18.39335923 121.49265588 -18.31585248 148.71779229 -18.21818829 175.94291592 C-18.17323532 188.58419905 -18.13381942 201.22545405 -18.10746765 213.86679077 C-18.08448363 224.8858166 -18.05108091 235.90475334 -18.00520164 246.9237085 C-17.98127505 252.7573895 -17.96254251 258.59098229 -17.95628929 264.42471123 C-17.95023599 269.918295 -17.93022686 275.41165309 -17.89962769 280.90515327 C-17.89085147 282.91866615 -17.88712401 284.93220852 -17.88889503 286.94573975 C-17.89055333 289.70165991 -17.87380114 292.45689662 -17.85263062 295.21272278 C-17.85747819 296.00360635 -17.86232577 296.79448992 -17.86732024 297.60933965 C-17.78450461 304.17249273 -16.76917466 310.75921478 -12.2039032 315.70492554 C-4.6803336 319.97968099 3.11712216 319.61315718 11.54023743 319.65805054 C17.53178191 319.80568613 20.95476603 320.32368341 25.5460968 324.26742554 C29.17443344 328.08672726 29.85610138 331.1502156 30.0460968 336.26742554 C29.85610138 341.38463548 29.17443344 344.44812382 25.5460968 348.26742554 C21.02940413 351.82095485 18.07107104 352.77783458 12.34687805 352.79867554 C11.33333504 352.80441589 11.33333504 352.80441589 10.29931641 352.81027222 C8.87480676 352.81298098 7.45024649 352.8056924 6.02583313 352.78890991 C3.88102309 352.76764785 1.73962628 352.78865388 -0.40507507 352.81430054 C-14.81920829 352.84397838 -27.15262117 348.45255168 -37.7664032 338.45492554 C-47.09854763 328.54069564 -51.07555166 315.96265655 -50.96856689 302.56080627 C-50.97551242 301.43422507 -50.98245795 300.30764387 -50.98961395 299.14692384 C-51.00780359 295.39936909 -50.99764148 291.65245315 -50.98735046 287.90487671 C-50.99441305 285.20677245 -51.00302373 282.50871244 -51.01345825 279.81062317 C-51.03503058 273.2587774 -51.03498861 266.70710578 -51.02683271 260.15523621 C-51.02051579 254.82570089 -51.0216852 249.4962161 -51.02810478 244.16668129 C-51.02900644 243.4062141 -51.02990809 242.6457469 -51.03083707 241.86223525 C-51.03268841 240.31700035 -51.03455097 238.77176546 -51.03642463 237.22653059 C-51.05298009 222.75613573 -51.04430374 208.28583854 -51.02743905 193.81544957 C-51.01275029 180.60147459 -51.02736282 167.38772716 -51.05620921 154.17378148 C-51.08566344 140.57929168 -51.09655758 126.98490669 -51.08702701 113.3903864 C-51.08600455 111.85012998 -51.08500993 110.30987354 -51.0840435 108.76961708 C-51.08356711 108.01193748 -51.08309072 107.25425788 -51.0825999 106.4736183 C-51.08044337 101.15753917 -51.09019929 95.84156012 -51.10481453 90.52550316 C-51.12240665 84.03654762 -51.12212295 77.54788178 -51.09946287 71.05893727 C-51.08838131 67.75371162 -51.08776176 64.44909562 -51.10376358 61.14387512 C-51.18897163 42.02428868 -50.3124899 27.41309161 -36.35624695 13.11898804 C-25.57450194 2.8886903 -14.4782854 -0.03833202 0 0 Z M-14.4539032 38.32992554 C-17.8810614 43.36356414 -18.1115898 47.24635105 -17.4539032 53.26742554 C-15.10597662 58.14388844 -12.16629466 60.67080167 -7.4539032 63.26742554 C-3.95444304 64.15524495 -0.69318711 64.39195759 2.90901661 64.39047337 C3.97792411 64.39246441 5.0468316 64.39445546 6.14813024 64.39650685 C7.31641431 64.393594 8.48469839 64.39068116 9.68838501 64.38768005 C11.55689307 64.38896169 11.55689307 64.38896169 13.46314877 64.39026922 C16.9179516 64.39163175 20.37269781 64.38850564 23.82749379 64.38349116 C27.55409374 64.37917348 31.28069195 64.38063402 35.0072937 64.38139343 C41.46296923 64.38191783 47.91863465 64.3787798 54.37430763 64.37315559 C63.70813154 64.36502922 73.04195056 64.3624242 82.37577762 64.3611676 C97.51922338 64.35897888 112.66266374 64.35232363 127.80610657 64.34286499 C142.51671827 64.33368625 157.22732851 64.32660767 171.9379425 64.32235718 C173.29804206 64.32196309 173.29804206 64.32196309 174.68561838 64.32156105 C179.23442286 64.32025601 183.78322735 64.3189923 188.33203185 64.31774914 C226.0700573 64.30738211 263.80807663 64.28976865 301.5460968 64.26742554 C301.57659993 61.70874062 301.59885192 59.15042392 301.6164093 56.59164429 C301.62583557 55.87198486 301.63526184 55.15232544 301.64497375 54.41085815 C301.67656733 48.26590819 301.28694273 42.6228854 297.2570343 37.68930054 C290.61091829 31.50521398 282.31376888 31.97742732 273.83128357 32.00672913 C272.65558961 32.00290358 271.47989565 31.99907803 270.2685746 31.99513656 C267.0180653 31.98662163 263.76770091 31.98703324 260.51718783 31.99131715 C257.00652811 31.99378802 253.49589476 31.98476573 249.98524475 31.97727966 C243.11238581 31.96454057 236.23956596 31.96273799 229.36669721 31.96507993 C223.77912199 31.96686416 218.19155863 31.96511118 212.60398483 31.96085548 C211.80822773 31.9602603 211.01247063 31.95966511 210.19259968 31.95905188 C208.57592599 31.95784011 206.95925231 31.95662597 205.34257863 31.9554095 C190.18660833 31.94453697 175.03066029 31.94669508 159.87468873 31.95279435 C146.01695305 31.95796302 132.15928767 31.94670889 118.3015659 31.92769613 C104.06426794 31.9083127 89.82700324 31.90006263 75.589692 31.90381938 C67.59981655 31.90573069 59.61000093 31.90325074 51.62013626 31.88910484 C44.81809805 31.87718363 38.0161565 31.87579443 31.21411695 31.88789501 C27.74563409 31.89377858 24.27732798 31.89489776 20.80885696 31.88289261 C17.04403332 31.87244513 13.27968391 31.88051058 9.51487732 31.89320374 C7.88047327 31.88214231 7.88047327 31.88214231 6.21305096 31.87085742 C-1.31837319 31.92423511 -9.24961451 32.25066486 -14.4539032 38.32992554 Z " fill="#000000" transform="translate(50.45390319824219,23.732574462890625)"/>
<path d="M0 0 C3.42707492 2.9070332 6.73344651 5.91433058 10 9 C10.75023437 9.68578125 11.50046875 10.3715625 12.2734375 11.078125 C28.56392439 26.51121784 39.12141646 47.56609001 45 69 C45.50853516 70.76150391 45.50853516 70.76150391 46.02734375 72.55859375 C53.95371142 105.90778125 46.27339082 141.04122771 29 170 C24.07124376 177.64807002 18.23737979 184.3969807 12 191 C11.31421875 191.75023437 10.6284375 192.50046875 9.921875 193.2734375 C-5.51121784 209.56392439 -26.56609001 220.12141646 -48 226 C-49.17433594 226.33902344 -50.34867188 226.67804688 -51.55859375 227.02734375 C-84.90778125 234.95371142 -120.04122771 227.27339082 -149 210 C-156.64807002 205.07124376 -163.3969807 199.23737979 -170 193 C-170.75023437 192.31421875 -171.50046875 191.6284375 -172.2734375 190.921875 C-188.56392439 175.48878216 -199.12141646 154.43390999 -205 133 C-205.33902344 131.82566406 -205.67804688 130.65132812 -206.02734375 129.44140625 C-213.95371142 96.09221875 -206.27339082 60.95877229 -189 32 C-184.07124376 24.35192998 -178.23737979 17.6030193 -172 11 C-171.31421875 10.24976563 -170.6284375 9.49953125 -169.921875 8.7265625 C-163.65753756 2.11420632 -156.55293285 -2.98201483 -149 -8 C-148.06671875 -8.6290625 -147.1334375 -9.258125 -146.171875 -9.90625 C-102.03290809 -37.65074348 -40.08782976 -32.76469865 0 0 Z M-143 29 C-143.97453125 29.88300781 -144.9490625 30.76601563 -145.953125 31.67578125 C-161.69043345 46.38377796 -173.8396892 68.09413583 -175.17700195 89.8840332 C-175.7739086 120.7305518 -169.4624458 145.48305965 -147.86987305 168.51538086 C-130.25947514 186.74126548 -106.07317065 195.8268877 -81 197 C-54.19325588 197.24053908 -29.97784694 185.7723559 -10.9375 167.375 C7.76628637 148.68908064 15.27440059 123.75693612 15.3190918 97.86914062 C15.05592394 71.47764927 3.28178694 48.86045279 -15.15698242 30.40405273 C-49.43301879 -2.47860559 -108.13593669 -3.18659439 -143 29 Z " fill="#000000" transform="translate(304,259)"/>
<path d="M0 0 C0.80060852 -0.0065712 1.60121704 -0.0131424 2.42608643 -0.01991272 C5.07377222 -0.03960777 7.72140122 -0.05130344 10.36914062 -0.0612793 C11.27722977 -0.06535482 12.18531891 -0.06943035 13.1209259 -0.07362938 C17.93282848 -0.09447973 22.74470267 -0.10878268 27.55664062 -0.11816406 C32.50141282 -0.12919156 37.44573044 -0.16355193 42.39034271 -0.20333576 C46.21334608 -0.22962332 50.03624345 -0.23786689 53.85932922 -0.24144554 C55.680395 -0.24628473 57.50145689 -0.25782157 59.32243347 -0.27648354 C76.45875037 -0.44110528 88.77908267 2.56822642 101.77539062 14.42700195 C110.43495652 23.53588495 114.61325154 35.68183343 114.46289062 48.05200195 C114.45153076 49.3685376 114.45153076 49.3685376 114.43994141 50.71166992 C114.26766342 57.50344643 113.22919766 63.11762779 110.02539062 69.17700195 C109.37183594 70.4628418 109.37183594 70.4628418 108.70507812 71.7746582 C101.86943907 84.15725025 91.56982705 91.25232013 78.29920959 95.76383972 C74.89047021 96.38322165 71.48799245 96.34168631 68.03491211 96.35400391 C67.2326973 96.3605751 66.43048248 96.3671463 65.60395813 96.37391663 C62.95146583 96.39360951 60.29903017 96.40530601 57.64648438 96.4152832 C56.73714708 96.41935873 55.82780979 96.42343426 54.89091682 96.42763329 C50.07368321 96.44848134 45.25647793 96.46278606 40.43920898 96.47216797 C35.48537097 96.48320327 30.53198572 96.51757343 25.57830715 96.55733967 C21.75105508 96.58360457 17.92390904 96.59186875 14.09657478 96.59544945 C12.27189148 96.60029337 10.44721221 96.61184408 8.62261772 96.63048744 C-1.2875617 96.72541837 -9.88128741 96.67698786 -18.97460938 92.17700195 C-19.95816406 91.7077832 -20.94171875 91.23856445 -21.95507812 90.75512695 C-33.83751236 83.60463555 -41.55594529 73.62265495 -45.55761719 60.22509766 C-47.73122564 49.54921867 -47.07236225 36.81840413 -41.97460938 27.17700195 C-41.53890625 26.31977539 -41.10320312 25.46254883 -40.65429688 24.5793457 C-33.81916015 12.19766359 -23.51848434 5.09923928 -10.24743652 0.59016418 C-6.84416511 -0.02849404 -3.4475725 0.01232364 0 0 Z M-9.97460938 38.23950195 C-13.40176757 43.27314056 -13.63229597 47.15592747 -12.97460938 53.17700195 C-10.62668279 58.05346485 -7.68700083 60.58037809 -2.97460938 63.17700195 C0.82027757 64.16037616 4.41445559 64.3138311 8.32519531 64.33813477 C9.57709656 64.34774231 10.8289978 64.35734985 12.11883545 64.36724854 C13.4783103 64.37209786 14.8377873 64.37637636 16.19726562 64.38012695 C17.23266354 64.38436802 17.23266354 64.38436802 18.28897858 64.38869476 C21.94330727 64.4036518 25.59759686 64.41290271 29.25195312 64.41723633 C33.0053209 64.42270978 36.75832388 64.44672362 40.51157761 64.47520828 C43.41657519 64.49393821 46.32148678 64.49904577 49.22653961 64.5005722 C50.60908243 64.50357696 51.99162454 64.51153086 53.37410736 64.52475739 C65.7947191 64.94164232 65.7947191 64.94164232 76.63592529 59.72491455 C80.71537808 54.99676336 81.38132449 51.77623577 81.30273438 45.71606445 C80.89162619 41.95239793 79.54252702 39.95910008 77.02539062 37.17700195 C71.34413702 32.70452571 66.79933914 32.05982966 59.72558594 32.01586914 C57.84773407 32.00145782 57.84773407 32.00145782 55.9319458 31.98675537 C54.57247095 31.98190605 53.21299395 31.97762755 51.85351562 31.97387695 C50.81811771 31.96963589 50.81811771 31.96963589 49.76180267 31.96530914 C46.10747398 31.9503521 42.45318439 31.9411012 38.79882812 31.93676758 C35.04546035 31.93129413 31.29245737 31.90728029 27.53920364 31.87879562 C24.63420606 31.8600657 21.72929447 31.85495814 18.82424164 31.8534317 C17.44169882 31.85042695 16.05915671 31.84247305 14.67667389 31.82924652 C1.0820128 31.42855568 1.0820128 31.42855568 -9.97460938 38.23950195 Z " fill="#000000" transform="translate(397.974609375,183.822998046875)"/>
<path d="M0 0 C4.96519463 2.30526893 7.39089701 5.24073974 10 10 C10.51769038 12.98030847 10.46847054 15.88103031 10.390625 18.8984375 C10.38496521 19.73339752 10.37930542 20.56835754 10.37347412 21.42861938 C10.35120223 24.07801266 10.30102523 26.72602016 10.25 29.375 C10.22992302 31.17836579 10.21167435 32.98175292 10.1953125 34.78515625 C10.15136786 39.19063269 10.08240601 43.59508194 10 48 C11.11971191 47.97905273 12.23942383 47.95810547 13.39306641 47.93652344 C17.56383377 47.86389574 21.73454568 47.81811789 25.90576172 47.78027344 C27.70794081 47.76020967 29.51005521 47.73295187 31.31201172 47.69824219 C33.90869136 47.64949171 36.50450729 47.62697918 39.1015625 47.609375 C40.30191635 47.57840729 40.30191635 47.57840729 41.52651978 47.54681396 C46.83916147 47.54470295 49.76422625 48.51659669 54 52 C57.62833663 55.81930172 58.31000458 58.88279006 58.5 64 C58.31000458 69.11720994 57.62833663 72.18069828 54 76 C48.94357099 80.15829141 45.36258981 80.55215211 39.1015625 80.390625 C38.26660248 80.38496521 37.43164246 80.37930542 36.57138062 80.37347412 C33.92198734 80.35120223 31.27397984 80.30102523 28.625 80.25 C26.82163421 80.22992302 25.01824708 80.21167435 23.21484375 80.1953125 C18.80936731 80.15136786 14.40491806 80.08240601 10 80 C10.0314209 81.67956787 10.0314209 81.67956787 10.06347656 83.39306641 C10.13610426 87.56383377 10.18188211 91.73454568 10.21972656 95.90576172 C10.23979033 97.70794081 10.26704813 99.51005521 10.30175781 101.31201172 C10.35050829 103.90869136 10.37302082 106.50450729 10.390625 109.1015625 C10.41127014 109.9017984 10.43191528 110.7020343 10.45318604 111.52651978 C10.45529705 116.83916147 9.48340331 119.76422625 6 124 C2.18069828 127.62833663 -0.88279006 128.31000458 -6 128.5 C-11.11720994 128.31000458 -14.18069828 127.62833663 -18 124 C-22.15829141 118.94357099 -22.55215211 115.36258981 -22.390625 109.1015625 C-22.38496521 108.26660248 -22.37930542 107.43164246 -22.37347412 106.57138062 C-22.35120223 103.92198734 -22.30102523 101.27397984 -22.25 98.625 C-22.22992302 96.82163421 -22.21167435 95.01824708 -22.1953125 93.21484375 C-22.15136786 88.80936731 -22.08240601 84.40491806 -22 80 C-23.67956787 80.0314209 -23.67956787 80.0314209 -25.39306641 80.06347656 C-29.56383377 80.13610426 -33.73454568 80.18188211 -37.90576172 80.21972656 C-39.70794081 80.23979033 -41.51005521 80.26704813 -43.31201172 80.30175781 C-45.90869136 80.35050829 -48.50450729 80.37302082 -51.1015625 80.390625 C-52.30191635 80.42159271 -52.30191635 80.42159271 -53.52651978 80.45318604 C-58.83916147 80.45529705 -61.76422625 79.48340331 -66 76 C-69.62833663 72.18069828 -70.31000458 69.11720994 -70.5 64 C-70.31000458 58.88279006 -69.62833663 55.81930172 -66 52 C-60.94357099 47.84170859 -57.36258981 47.44784789 -51.1015625 47.609375 C-50.26660248 47.61503479 -49.43164246 47.62069458 -48.57138062 47.62652588 C-45.92198734 47.64879777 -43.27397984 47.69897477 -40.625 47.75 C-38.82163421 47.77007698 -37.01824708 47.78832565 -35.21484375 47.8046875 C-30.80936731 47.84863214 -26.40491806 47.91759399 -22 48 C-22.02094727 46.88028809 -22.04189453 45.76057617 -22.06347656 44.60693359 C-22.13610426 40.43616623 -22.18188211 36.26545432 -22.21972656 32.09423828 C-22.23979033 30.29205919 -22.26704813 28.48994479 -22.30175781 26.68798828 C-22.35050829 24.09130864 -22.37302082 21.49549271 -22.390625 18.8984375 C-22.41127014 18.0982016 -22.43191528 17.2979657 -22.45318604 16.47348022 C-22.45529705 11.16083853 -21.48340331 8.23577375 -18 4 C-12.72867143 -1.00776214 -6.89190982 -0.92775709 0 0 Z " fill="#000000" transform="translate(230,296)"/>
<path d="M0 0 C4.97578517 2.31018597 7.31686819 5.28043815 10 10 C10.51757812 13.4440918 10.51757812 13.4440918 10.53125 17.19921875 C10.53699036 18.21276176 10.53699036 18.21276176 10.54284668 19.2467804 C10.54555544 20.67129004 10.53826686 22.09585031 10.52148438 23.52026367 C10.50022232 25.66507371 10.52122835 27.80647052 10.546875 29.95117188 C10.57631539 44.24997612 6.18285141 56.32504895 -3.375 67.125 C-14.11237062 77.38190462 -27.36783057 80.21790355 -41.64404297 80.29516602 C-43.12786386 80.30669494 -44.61164299 80.32716158 -46.09521484 80.35668945 C-48.24865652 80.3995095 -50.4008722 80.41555154 -52.5546875 80.42578125 C-53.83843262 80.44036377 -55.12217773 80.45494629 -56.44482422 80.4699707 C-61.74627403 79.76915413 -64.76056831 77.30466494 -68.375 73.5 C-70.77303575 68.33499991 -70.75381535 63.5997712 -70 58 C-67.69433277 53.03394751 -64.79596126 50.55465932 -60 48 C-56.39736479 47.4517729 -52.82687114 47.43994746 -49.1875 47.4375 C-36.96495784 47.44380759 -36.96495784 47.44380759 -26.5625 41.75 C-22.28774455 34.2264304 -22.65426835 26.42897464 -22.609375 18.00585938 C-22.46173941 12.01431489 -21.94374212 8.59133077 -18 4 C-12.72867143 -1.00776214 -6.89190982 -0.92775709 0 0 Z " fill="#000000" transform="translate(438,296)"/>
</svg>
